# Blender 4.3.2
# www.blender.org
mtllib auto1.mtl
o Cube
v -0.619266 -0.224534 1.978700
v -0.619266 -0.224534 -1.978700
v -0.619266 0.224534 -1.978700
v 0.622226 -0.224534 1.978700
v -0.619266 0.224534 -1.279271
v 0.622226 -0.224534 -1.978700
v 0.622226 0.224534 -1.978700
v -0.619266 0.224534 0.952853
v 0.622226 0.224534 0.952853
v -0.619266 0.054545 1.978700
v -0.619266 0.224534 0.958767
v -0.619266 0.057215 1.978574
v -0.619266 0.059885 1.978197
v -0.619266 0.062553 1.977568
v -0.619266 0.065219 1.976687
v -0.619266 0.067882 1.975556
v -0.619266 0.070543 1.974173
v -0.619266 0.073199 1.972540
v -0.619266 0.075851 1.970657
v -0.619266 0.078497 1.968525
v -0.619266 0.081137 1.966143
v -0.619266 0.083771 1.963512
v -0.619266 0.086398 1.960634
v -0.619266 0.089017 1.957509
v -0.619266 0.091627 1.954136
v -0.619266 0.094228 1.950519
v -0.619266 0.096820 1.946657
v -0.619266 0.099401 1.942551
v -0.619266 0.101971 1.938202
v -0.619266 0.104529 1.933612
v -0.619266 0.107075 1.928781
v -0.441464 -0.057742 0.963704
v -0.497843 -0.050445 -1.450762
v -0.497843 -0.100000 -1.456263
v -0.441464 -0.100000 0.959074
v -0.619266 0.109608 1.923711
v -0.441464 -0.100000 1.200000
v -0.497843 -0.002795 -1.434472
v -0.619266 0.112127 1.918402
v -0.497843 0.041119 -1.408019
v -0.441464 -0.017109 0.977414
v -0.497843 0.079611 -1.372418
v -0.619266 0.114632 1.912857
v -0.497843 0.111200 -1.329039
v -0.441464 0.020340 0.999678
v -0.497843 0.134673 -1.279548
v -0.619266 0.117122 1.907077
v -0.497843 0.149128 -1.225847
v -0.619266 0.119597 1.901062
v -0.497843 0.154008 -1.170000
v -0.441464 0.053163 1.029640
v -0.497843 0.149128 -1.114153
v -0.619266 0.122056 1.894815
v -0.497843 0.134673 -1.060452
v -0.441464 0.080101 1.066149
v -0.497843 0.111200 -1.010961
v -0.619266 0.124498 1.888337
v -0.497843 0.079611 -0.967582
v -0.441464 0.100118 1.107802
v -0.497843 0.041119 -0.931981
v -0.619266 0.126923 1.881630
v -0.497843 -0.002795 -0.905528
v -0.497843 -0.050445 -0.889238
v -0.441464 0.112444 1.152998
v -0.619266 0.129330 1.874695
v -0.497843 -0.100000 -0.883737
v -0.441464 0.116606 1.200000
v -0.497843 -0.149555 -0.889238
v -0.619266 0.131719 1.867534
v -0.497843 -0.197205 -0.905528
v -0.441464 0.112444 1.247002
v -0.619266 0.134088 1.860149
v -0.441464 0.100118 1.292198
v -0.619266 0.136438 1.852541
v -0.441464 0.080101 1.333851
v -0.619266 0.138768 1.844713
v -0.441464 0.053163 1.370360
v -0.441464 0.020340 1.400322
v -0.619266 0.141077 1.836666
v -0.619266 0.143364 1.828403
v -0.441464 -0.017109 1.422586
v -0.497843 -0.197205 -1.434472
v -0.619266 0.145630 1.819925
v -0.497843 -0.149555 -1.450762
v -0.441464 -0.057742 1.436296
v -0.619266 0.147873 1.811234
v 0.500000 -0.100000 -1.456263
v -0.441464 -0.100000 1.440925
v 0.500000 -0.050446 -1.450762
v -0.441464 -0.142258 1.436296
v 0.500000 -0.002795 -1.434472
v -0.619266 0.150093 1.802334
v -0.619266 0.152290 1.793225
v 0.500000 0.041119 -1.408019
v -0.441464 -0.182891 1.422586
v 0.500000 0.079611 -1.372418
v 0.500000 0.111200 -1.329039
v -0.441464 -0.220340 1.400322
v -0.619266 0.154462 1.783910
v 0.500000 0.134673 -1.279548
v -0.619266 0.156610 1.774392
v 0.500000 0.149128 -1.225847
v 0.500000 0.154008 -1.170000
v -0.619266 0.158733 1.764672
v -0.619266 0.160830 1.754754
v 0.500000 0.149128 -1.114153
v 0.500000 0.134673 -1.060452
v -0.619266 0.162900 1.744639
v -0.619266 0.164944 1.734330
v 0.500000 0.111200 -1.010961
v 0.500000 0.079611 -0.967582
v -0.619266 0.166961 1.723830
v 0.500000 0.041119 -0.931981
v -0.619266 0.168950 1.713141
v 0.500000 -0.002795 -0.905528
v -0.619266 0.170911 1.702266
v 0.500000 -0.050446 -0.889238
v -0.619266 0.172843 1.691207
v 0.500000 -0.100000 -0.883737
v -0.441464 -0.220340 0.999678
v -0.619266 0.174746 1.679968
v 0.500000 -0.149555 -0.889238
v -0.441464 -0.182891 0.977414
v 0.500000 -0.197205 -0.905528
v -0.619266 0.176619 1.668551
v -0.441464 -0.142258 0.963704
v -0.619266 0.178462 1.656959
v -0.619266 0.180274 1.645195
v -0.619266 0.182056 1.633261
v -0.619266 0.183806 1.621161
v -0.619266 0.185524 1.608897
v -0.619266 0.187210 1.596473
v -0.619266 0.188863 1.583891
v -0.619266 0.190483 1.571155
v -0.619266 0.192069 1.558269
v -0.619266 0.193622 1.545234
v 0.500000 -0.197205 -1.434472
v 0.500000 -0.149555 -1.450762
v -0.619266 0.195140 1.532054
v -0.619266 0.196623 1.518733
v -0.619266 0.198072 1.505274
v -0.619266 0.199485 1.491681
v -0.619266 0.200862 1.477955
v -0.619266 0.202203 1.464102
v -0.619266 0.203508 1.450123
v -0.619266 0.204776 1.436024
v -0.619266 0.206007 1.421807
v -0.619266 0.207200 1.407475
v -0.619266 0.208356 1.393033
v -0.619266 0.209474 1.378484
v -0.619266 0.210553 1.363831
v -0.619266 0.211595 1.349078
v -0.619266 0.212597 1.334229
v -0.619266 0.213560 1.319287
v -0.619266 0.214485 1.304257
v -0.619266 0.215369 1.289141
v -0.619266 0.216214 1.273943
v -0.619266 0.217020 1.258668
v -0.619266 0.217785 1.243319
v -0.619266 0.218509 1.227900
v -0.619266 0.219194 1.212414
v -0.619266 0.219837 1.196865
v -0.619266 0.220440 1.181258
v -0.441464 -0.057742 -1.404118
v -0.619266 0.221002 1.165596
v -0.441464 -0.100000 -1.408748
v -0.619266 0.221523 1.149883
v -0.441464 -0.100000 -1.167822
v -0.619266 0.222003 1.134123
v -0.441464 -0.017109 -1.390408
v -0.619266 0.222441 1.118319
v -0.441464 0.020340 -1.368144
v -0.619266 0.222838 1.102477
v -0.441464 0.053163 -1.338182
v -0.441464 0.080101 -1.301673
v -0.619266 0.223194 1.086598
v -0.441464 0.100118 -1.260020
v -0.619266 0.223508 1.070688
v -0.619266 0.223780 1.054751
v -0.441464 0.112444 -1.214824
v -0.619266 0.224010 1.038790
v -0.441464 0.116606 -1.167822
v -0.619266 0.224199 1.022809
v -0.441464 0.112444 -1.120820
v -0.619266 0.224345 1.006812
v -0.441464 0.100118 -1.075624
v -0.619266 0.224450 0.990804
v -0.441464 0.080101 -1.033971
v -0.441464 0.053163 -0.997462
v -0.619266 0.224513 0.974787
v 0.622226 0.224534 0.958767
v -0.441464 0.020340 -0.967500
v 0.622226 0.054545 1.978700
v -0.441464 -0.017109 -0.945236
v 0.622226 0.224513 0.974787
v -0.441464 -0.057742 -0.931526
v 0.622226 0.224450 0.990804
v -0.441464 -0.100000 -0.926896
v 0.622226 0.224345 1.006812
v -0.441464 -0.142258 -0.931526
v 0.622226 0.224199 1.022809
v -0.441464 -0.182891 -0.945236
v 0.622226 0.224010 1.038790
v -0.441464 -0.220340 -0.967500
v 0.622226 0.223780 1.054751
v -0.497843 -0.050445 0.919238
v 0.622226 0.223508 1.070688
v 0.622226 0.223194 1.086598
v -0.497843 -0.100000 0.913738
v 0.622226 0.222838 1.102477
v 0.622226 0.222441 1.118319
v -0.497843 -0.002795 0.935528
v -0.497843 0.041119 0.961981
v 0.622226 0.222003 1.134123
v -0.497843 0.079611 0.997582
v 0.622226 0.221523 1.149883
v -0.497843 0.111200 1.040961
v 0.622226 0.221002 1.165596
v -0.497843 0.134673 1.090452
v 0.622226 0.220440 1.181258
v -0.497843 0.149128 1.144153
v 0.622226 0.219837 1.196865
v -0.497843 0.154008 1.200000
v -0.441464 -0.220340 -1.368144
v -0.497843 0.149128 1.255847
v 0.622226 0.219194 1.212414
v -0.441464 -0.182891 -1.390408
v -0.497843 0.134673 1.309548
v -0.441464 -0.142258 -1.404118
v -0.497843 0.111200 1.359039
v 0.622226 0.218509 1.227900
v -0.497843 0.079611 1.402418
v -0.497843 0.041119 1.438019
v 0.434780 -0.100000 1.200000
v -0.497843 -0.002795 1.464473
v 0.622226 0.217785 1.243319
v -0.497843 -0.050445 1.480762
v 0.622226 0.217020 1.258668
v 0.434780 -0.100000 0.959074
v -0.497843 -0.100000 1.486263
v -0.497843 -0.149555 1.480762
v 0.434780 -0.057742 0.963704
v -0.497843 -0.197205 1.464473
v 0.622226 0.216214 1.273943
v 0.434780 -0.017109 0.977414
v 0.622226 0.215369 1.289141
v 0.434780 0.020340 0.999678
v 0.622226 0.214485 1.304257
v 0.434780 0.053163 1.029640
v 0.622226 0.213560 1.319287
v 0.434780 0.080101 1.066149
v 0.622226 0.212597 1.334229
v 0.434780 0.100117 1.107802
v 0.622226 0.211595 1.349078
v 0.434780 0.112444 1.152998
v 0.622226 0.210553 1.363831
v -0.497843 -0.197205 0.935528
v -0.497843 -0.149555 0.919238
v 0.434780 0.116606 1.200000
v 0.622226 0.209474 1.378484
v 0.500000 -0.100000 0.913737
v 0.622226 0.208356 1.393033
v 0.434780 0.112444 1.247002
v 0.500000 -0.050446 0.919238
v 0.434780 0.100117 1.292198
v 0.500000 -0.002795 0.935528
v 0.622226 0.207200 1.407475
v 0.500000 0.041119 0.961981
v 0.434780 0.080101 1.333851
v 0.500000 0.079611 0.997582
v 0.622226 0.206007 1.421807
v 0.500000 0.111200 1.040961
v 0.622226 0.204776 1.436024
v 0.500000 0.134673 1.090452
v 0.434780 0.053163 1.370360
v 0.500000 0.149128 1.144153
v 0.500000 0.154008 1.200000
v 0.622226 0.203508 1.450123
v 0.500000 0.149128 1.255847
v 0.434780 0.020340 1.400322
v 0.500000 0.134673 1.309548
v 0.622226 0.202203 1.464102
v 0.500000 0.111200 1.359039
v 0.434780 -0.017109 1.422586
v 0.500000 0.079611 1.402418
v 0.622226 0.200862 1.477955
v 0.500000 0.041119 1.438019
v 0.434780 -0.057742 1.436296
v 0.500000 -0.002795 1.464472
v 0.622226 0.199485 1.491681
v 0.500000 -0.050446 1.480762
v 0.434780 -0.100000 1.440925
v 0.500000 -0.100000 1.486263
v 0.622226 0.198072 1.505274
v 0.500000 -0.149555 1.480762
v 0.434780 -0.142258 1.436296
v 0.500000 -0.197205 1.464472
v 0.622226 0.196623 1.518733
v 0.434780 -0.182891 1.422586
v 0.622226 0.195140 1.532054
v 0.434780 -0.220340 1.400322
v 0.622226 0.193622 1.545234
v 0.622226 0.192069 1.558269
v 0.622226 0.190483 1.571155
v 0.622226 0.188863 1.583891
v 0.622226 0.187210 1.596473
v 0.622226 0.185524 1.608897
v 0.622226 0.183806 1.621161
v 0.622226 0.182056 1.633261
v 0.622226 0.180274 1.645195
v 0.500000 -0.197205 0.935528
v 0.434780 -0.220340 0.999678
v 0.500000 -0.149555 0.919238
v 0.622226 0.178462 1.656959
v 0.622226 0.176619 1.668551
v 0.434780 -0.182891 0.977414
v 0.622226 0.174746 1.679968
v 0.434780 -0.142258 0.963704
v 0.622226 0.172843 1.691207
v 0.622226 0.170911 1.702266
v 0.622226 0.168950 1.713141
v 0.622226 0.166961 1.723830
v 0.622226 0.164944 1.734330
v 0.622226 0.162900 1.744639
v 0.622226 0.160830 1.754754
v 0.622226 0.158733 1.764672
v 0.622226 0.156610 1.774392
v 0.622226 0.154462 1.783910
v 0.622226 0.152290 1.793225
v 0.622226 0.150093 1.802334
v 0.622226 0.147873 1.811234
v 0.622226 0.145630 1.819925
v 0.622226 0.143364 1.828403
v 0.622226 0.141077 1.836666
v 0.622226 0.138768 1.844713
v 0.622226 0.136438 1.852541
v 0.622226 0.134088 1.860149
v 0.622226 0.131719 1.867534
v 0.622226 0.129330 1.874695
v 0.622226 0.126923 1.881630
v 0.622226 0.124498 1.888337
v 0.622226 0.122056 1.894815
v 0.622226 0.119597 1.901062
v 0.622226 0.117122 1.907077
v 0.622226 0.114632 1.912857
v 0.622226 0.112127 1.918402
v 0.622226 0.109608 1.923711
v 0.622226 0.107075 1.928781
v 0.622226 0.104529 1.933612
v 0.622226 0.101971 1.938202
v 0.622226 0.099401 1.942551
v 0.622226 0.096820 1.946657
v 0.434780 -0.100000 -1.167822
v 0.622226 0.094228 1.950519
v 0.434780 -0.100000 -1.408747
v 0.622226 0.091627 1.954136
v 0.434780 -0.057742 -1.404118
v 0.622226 0.089017 1.957509
v 0.434780 -0.017109 -1.390408
v 0.622226 0.086398 1.960634
v 0.434780 0.020340 -1.368144
v 0.622226 0.083771 1.963512
v 0.434780 0.053163 -1.338182
v 0.434780 0.080101 -1.301673
v 0.622226 0.081137 1.966143
v 0.622226 0.078497 1.968525
v 0.434780 0.100117 -1.260020
v 0.434780 0.112444 -1.214824
v 0.622226 0.075851 1.970657
v 0.622226 0.073199 1.972540
v 0.434780 0.116606 -1.167822
v 0.622226 0.070543 1.974173
v 0.434780 0.112444 -1.120820
v 0.622226 0.067882 1.975556
v 0.434780 0.100117 -1.075624
v 0.622226 0.065219 1.976687
v 0.434780 0.080101 -1.033971
v 0.434780 0.053163 -0.997462
v 0.622226 0.062553 1.977568
v 0.434780 0.020340 -0.967499
v 0.622226 0.059885 1.978197
v 0.434780 -0.017109 -0.945236
v 0.622226 0.057215 1.978574
v 0.434780 -0.057742 -0.931525
v 0.434780 -0.100000 -0.926896
v 0.622226 0.224534 -1.279271
v 0.434780 -0.142258 -0.931525
v 0.434780 -0.182891 -0.945236
v 0.434780 -0.220340 -0.967499
v -0.619266 0.224534 0.571076
v 0.622226 0.224534 0.571076
v -0.529674 0.703130 0.571076
v 0.532634 0.703130 0.571076
v 0.434780 -0.220340 -1.368144
v -0.619266 0.224534 -0.619198
v 0.434780 -0.182891 -1.390408
v -0.529674 0.703130 -0.619198
v 0.434780 -0.142258 -1.404118
v 0.622226 0.224534 -0.619197
v 0.532634 0.703130 -0.619197
v -0.441464 -0.224534 1.061483
v 0.434780 -0.224534 1.396493
v 0.434780 -0.224534 1.338516
v 0.434780 -0.224534 1.292554
v 0.434780 -0.224534 1.257375
v 0.434780 -0.224534 1.227553
v -0.441464 -0.224534 1.003506
v 0.434780 -0.224534 1.200000
v 0.434780 -0.224534 1.172447
v 0.434780 -0.224534 1.142624
v 0.434780 -0.224534 1.107446
v 0.434780 -0.224534 1.061483
v 0.434780 -0.224534 1.003506
v -0.441464 -0.224534 1.396493
v -0.441464 -0.224534 1.338516
v -0.441464 -0.224534 1.292554
v -0.441464 -0.224534 1.107446
v -0.441464 -0.224534 1.142624
v -0.441464 -0.224534 1.227553
v -0.441464 -0.224534 1.257375
v -0.441464 -0.224534 1.200000
v -0.441464 -0.224534 1.172447
v -0.441464 -0.224534 -0.971329
v -0.441464 -0.224534 -1.029305
v -0.441464 -0.224534 -1.075268
v -0.441464 -0.224534 -1.110446
v -0.441464 -0.224534 -1.140269
v -0.441464 -0.224534 -1.167822
v -0.441464 -0.224534 -1.195375
v -0.441464 -0.224534 -1.225197
v -0.441464 -0.224534 -1.260376
v -0.441464 -0.224534 -1.279271
v 0.434780 -0.224534 -1.260376
v 0.434780 -0.224534 -1.225197
v 0.434780 -0.224534 -1.279271
v 0.434780 -0.224534 -1.075268
v 0.434780 -0.224534 -1.029305
v 0.434780 -0.224534 -1.110446
v 0.434780 -0.224534 -1.140269
v 0.434780 -0.224534 -1.167822
v 0.434780 -0.224534 -1.195374
v 0.434780 -0.224534 -0.971328
v -0.441464 -0.224534 -1.306339
v 0.434780 -0.224534 -1.306338
v 0.434780 -0.224534 -1.364315
v -0.441464 -0.224534 -1.364316
v -0.619266 0.134748 -1.279271
v -0.619266 0.134673 -1.279548
v -0.619266 0.111200 -1.329039
v -0.619266 -0.224534 -1.418009
v -0.619266 -0.197205 -1.434472
v -0.619266 0.079611 -1.372418
v -0.619266 -0.149555 -1.450762
v -0.619266 0.041119 -1.408019
v -0.619266 -0.100000 -1.456263
v -0.619266 -0.002795 -1.434472
v -0.619266 -0.050445 -1.450762
v 0.622226 -0.224534 -1.418010
v 0.622226 0.134748 -1.279271
v 0.622226 0.134673 -1.279548
v 0.622226 -0.197205 -1.434472
v 0.622226 -0.149555 -1.450762
v 0.622226 0.111200 -1.329039
v 0.622226 0.041119 -1.408019
v 0.622226 0.079611 -1.372418
v 0.622226 -0.002795 -1.434472
v 0.622226 -0.100000 -1.456263
v 0.622226 -0.050446 -1.450762
v -0.497843 -0.224534 0.989955
v 0.500000 -0.224534 0.952853
v -0.497843 -0.224534 0.952853
v 0.500000 -0.224534 1.003506
v 0.500000 -0.224534 0.989955
v -0.497843 -0.224534 1.003506
v -0.619266 -0.224534 1.448010
v -0.497843 -0.224534 1.410045
v -0.497843 -0.224534 1.448010
v -0.497843 -0.224534 1.396493
v 0.500000 -0.224534 1.448010
v 0.500000 -0.224534 1.410045
v 0.500000 -0.224534 1.396493
v 0.622226 -0.224534 1.448010
v 0.622226 0.154008 1.200000
v 0.622226 0.025965 0.952853
v 0.622226 0.041119 0.961981
v 0.622226 0.079611 0.997582
v 0.622226 0.111200 1.040961
v 0.622226 0.134673 1.090452
v 0.622226 0.149128 1.144153
v 0.622226 0.134673 1.309548
v 0.622226 0.149128 1.255847
v 0.622226 -0.197205 1.464472
v 0.622226 -0.149555 1.480762
v 0.622226 -0.100000 1.486263
v 0.622226 -0.050446 1.480762
v 0.622226 -0.002795 1.464472
v 0.622226 0.041119 1.438019
v 0.622226 0.079611 1.402418
v 0.622226 0.111200 1.359039
v 0.500000 -0.224534 -0.971328
v 0.500000 -0.224534 -0.959955
v 0.500000 -0.224534 -0.921991
v 0.622226 -0.224534 0.951990
v 0.622226 -0.224534 -0.921991
v -0.619266 -0.224534 0.951991
v -0.619266 -0.224534 -0.921991
v -0.497843 -0.224534 0.951991
v 0.500000 -0.224534 0.951990
v -0.497843 -0.224534 -0.921991
v -0.497843 -0.224534 -0.959955
v -0.497843 -0.224534 -0.971329
v 0.622226 0.149128 -1.225847
v 0.622226 0.149128 -1.114153
v 0.622226 0.154008 -1.170000
v 0.622226 0.134673 -1.060452
v 0.622226 -0.100000 0.913737
v 0.622226 -0.149555 0.919238
v 0.622226 -0.050446 0.919238
v 0.622226 -0.197205 0.935528
v 0.622226 -0.002795 0.935528
v 0.622226 0.111200 -1.010961
v 0.622226 0.079611 -0.967582
v 0.622226 -0.197205 -0.905528
v 0.622226 -0.149555 -0.889238
v 0.622226 0.041119 -0.931981
v 0.622226 -0.002795 -0.905528
v 0.622226 -0.100000 -0.883737
v 0.622226 -0.050446 -0.889238
v -0.619266 0.025965 0.952853
v -0.619266 -0.197205 1.464473
v -0.619266 0.041119 0.961981
v -0.619266 0.079611 0.997582
v -0.619266 0.111200 1.040961
v -0.619266 0.134673 1.090452
v -0.619266 -0.149555 1.480762
v -0.619266 -0.100000 1.486263
v -0.619266 -0.050445 1.480762
v -0.619266 -0.002795 1.464473
v -0.619266 0.041119 1.438019
v -0.619266 0.079611 1.402418
v -0.619266 0.149128 1.144153
v -0.619266 0.111200 1.359039
v -0.619266 0.134673 1.309548
v -0.619266 0.154008 1.200000
v -0.619266 0.149128 1.255847
v 0.500000 -0.224534 -1.364315
v 0.500000 -0.224534 -1.380045
v 0.500000 -0.224534 -1.418010
v -0.497843 -0.224534 -1.364316
v -0.497843 -0.224534 -1.418009
v -0.497843 -0.224534 -1.380045
v -0.619266 -0.197205 0.935528
v -0.619266 -0.002795 0.935528
v -0.619266 -0.149555 0.919238
v -0.619266 -0.100000 0.913738
v -0.619266 -0.050445 0.919238
v -0.619266 -0.197205 -0.905528
v -0.619266 -0.149555 -0.889238
v -0.619266 0.149128 -1.225847
v -0.619266 -0.100000 -0.883737
v -0.619266 0.111200 -1.010961
v -0.619266 0.134673 -1.060452
v -0.619266 0.154008 -1.170000
v -0.619266 0.149128 -1.114153
v -0.619266 -0.050445 -0.889238
v -0.619266 -0.002795 -0.905528
v -0.619266 0.079611 -0.967582
v -0.619266 0.041119 -0.931981
v -0.497843 0.116606 1.200000
v -0.497843 0.112444 1.152998
v -0.497843 -0.057742 1.436296
v -0.497843 -0.017109 1.422586
v -0.497843 -0.018071 1.422911
v -0.497843 -0.018071 0.977089
v -0.497843 -0.017109 0.977414
v -0.497843 -0.057742 0.963704
v -0.497843 -0.220340 0.999678
v -0.497843 0.112444 1.247002
v -0.497843 0.116606 1.200000
v -0.497843 -0.100000 1.440925
v -0.497843 -0.058283 1.436355
v -0.497843 0.019179 0.998987
v -0.497843 0.020340 0.999678
v -0.497843 -0.182891 0.977414
v -0.497843 -0.219179 0.998987
v -0.497843 0.100118 1.292198
v -0.497843 0.112284 1.247588
v -0.497843 -0.142258 1.436296
v -0.497843 -0.141717 1.436355
v -0.497843 0.052059 1.028632
v -0.497843 0.053163 1.029640
v -0.497843 -0.142258 0.963704
v -0.497843 -0.181929 0.977089
v -0.497843 0.080101 1.333851
v -0.497843 0.099639 1.293194
v -0.497843 -0.182891 1.422586
v -0.497843 -0.181929 1.422911
v -0.497843 0.079262 1.065012
v -0.497843 0.080101 1.066149
v -0.497843 -0.100000 0.959074
v -0.497843 -0.141717 0.963644
v -0.497843 0.053163 1.370360
v -0.497843 0.079262 1.334989
v -0.497843 -0.220340 1.400322
v -0.497843 -0.219179 1.401013
v -0.497843 0.099639 1.106806
v -0.497843 0.100118 1.107802
v -0.497843 0.020340 1.400322
v -0.497843 0.052059 1.371368
v -0.497843 0.112284 1.152412
v -0.497843 -0.058283 0.963644
v -0.497843 0.019179 1.401013
v -0.497843 0.116606 -1.167822
v -0.497843 0.116413 -1.170000
v -0.497843 0.112444 -1.214824
v -0.497843 -0.057742 -0.931526
v -0.497843 -0.017109 -0.945236
v -0.497843 -0.017359 -0.945152
v -0.497843 -0.018783 -1.390973
v -0.497843 -0.017109 -1.390408
v -0.497843 -0.057742 -1.404118
v -0.497843 -0.220340 -1.368144
v -0.497843 0.112444 -1.120820
v -0.497843 0.112579 -1.122346
v -0.497843 -0.100000 -0.926896
v -0.497843 -0.100000 -0.926896
v -0.497843 -0.057906 -0.931508
v -0.497843 0.018224 -1.369402
v -0.497843 0.020340 -1.368144
v -0.497843 -0.182891 -1.390408
v -0.497843 -0.218224 -1.369402
v -0.497843 0.100118 -1.075624
v -0.497843 0.100350 -1.076475
v -0.497843 -0.142258 -0.931526
v -0.497843 -0.142094 -0.931508
v -0.497843 0.050992 -1.340165
v -0.497843 0.053163 -1.338182
v -0.497843 -0.142258 -1.404118
v -0.497843 -0.181217 -1.390973
v -0.497843 0.080101 -1.033971
v -0.497843 0.080245 -1.034271
v -0.497843 -0.182891 -0.945236
v -0.497843 -0.182641 -0.945152
v -0.497843 0.078229 -1.304211
v -0.497843 0.080101 -1.301673
v -0.497843 -0.100000 -1.408748
v -0.497843 -0.141340 -1.404219
v -0.497843 0.053163 -0.997462
v -0.497843 -0.220340 -0.967500
v -0.497843 -0.220133 -0.967377
v -0.497843 0.100118 -1.260020
v -0.497843 0.098784 -1.262795
v -0.497843 0.020340 -0.967500
v -0.497843 0.053127 -0.997429
v -0.497843 0.111724 -1.217462
v -0.497843 -0.058660 -1.404219
v -0.497843 -0.100000 -1.408748
v -0.497843 0.020134 -0.967377
v 0.500000 0.116606 1.200000
v 0.500000 0.112444 1.152998
v 0.500000 -0.057742 1.436296
v 0.500000 -0.018071 1.422911
v 0.500000 -0.017109 1.422586
v 0.500000 -0.017109 0.977414
v 0.500000 -0.018071 0.977089
v 0.500000 -0.057742 0.963704
v 0.500000 -0.220340 0.999678
v 0.500000 0.112444 1.247002
v 0.500000 0.116606 1.200000
v 0.500000 -0.100000 1.440925
v 0.500000 -0.058283 1.436355
v 0.500000 0.020340 0.999678
v 0.500000 0.019179 0.998987
v 0.500000 -0.182891 0.977414
v 0.500000 -0.219179 0.998987
v 0.500000 0.100117 1.292198
v 0.500000 0.112284 1.247588
v 0.500000 -0.141717 1.436355
v 0.500000 -0.142258 1.436296
v 0.500000 -0.100000 1.440925
v 0.500000 0.053163 1.029640
v 0.500000 0.052059 1.028632
v 0.500000 -0.142258 0.963704
v 0.500000 -0.181929 0.977089
v 0.500000 0.080101 1.333851
v 0.500000 0.099639 1.293194
v 0.500000 -0.181929 1.422911
v 0.500000 -0.182891 1.422586
v 0.500000 0.080101 1.066149
v 0.500000 0.079262 1.065012
v 0.500000 -0.100000 0.959074
v 0.500000 -0.100000 0.959074
v 0.500000 -0.141717 0.963644
v 0.500000 0.053163 1.370360
v 0.500000 0.079262 1.334988
v 0.500000 -0.219179 1.401012
v 0.500000 -0.220340 1.400322
v 0.500000 0.100117 1.107802
v 0.500000 0.099639 1.106806
v 0.500000 0.020340 1.400322
v 0.500000 0.052059 1.371368
v 0.500000 0.112284 1.152412
v 0.500000 -0.058283 0.963644
v 0.500000 0.019179 1.401012
v 0.500000 0.116413 -1.170000
v 0.500000 0.116606 -1.167822
v 0.500000 0.112444 -1.214824
v 0.500000 -0.057742 -0.931525
v 0.500000 -0.017359 -0.945151
v 0.500000 -0.017109 -0.945236
v 0.500000 -0.017109 -1.390408
v 0.500000 -0.018783 -1.390973
v 0.500000 -0.057742 -1.404118
v 0.500000 -0.220340 -1.368144
v 0.500000 0.112579 -1.122346
v 0.500000 0.112444 -1.120820
v 0.500000 -0.100000 -0.926896
v 0.500000 -0.057906 -0.931508
v 0.500000 0.020340 -1.368144
v 0.500000 0.018224 -1.369402
v 0.500000 -0.182891 -1.390408
v 0.500000 -0.218224 -1.369402
v 0.500000 0.100350 -1.076475
v 0.500000 0.100117 -1.075624
v 0.500000 -0.142094 -0.931508
v 0.500000 -0.142258 -0.931525
v 0.500000 0.053163 -1.338182
v 0.500000 0.050991 -1.340164
v 0.500000 -0.142258 -1.404118
v 0.500000 -0.181217 -1.390973
v 0.500000 0.080245 -1.034271
v 0.500000 0.080101 -1.033971
v 0.500000 -0.182642 -0.945151
v 0.500000 -0.182891 -0.945236
v 0.500000 0.080101 -1.301673
v 0.500000 0.078228 -1.304211
v 0.500000 -0.100000 -1.408747
v 0.500000 -0.141340 -1.404219
v 0.500000 0.053163 -0.997462
v 0.500000 -0.220134 -0.967377
v 0.500000 -0.220340 -0.967499
v 0.500000 0.098784 -1.262795
v 0.500000 0.100117 -1.260020
v 0.500000 0.020340 -0.967499
v 0.500000 0.053127 -0.997429
v 0.500000 0.111724 -1.217462
v 0.500000 -0.058660 -1.404219
v 0.500000 0.020134 -0.967377
vn -1.0000 -0.0000 -0.0000
vn -0.0000 -0.0000 -1.0000
vn 1.0000 -0.0000 -0.0000
vn 0.9829 0.1840 -0.0000
vn -0.0000 -1.0000 -0.0000
vn -0.0000 -0.0000 1.0000
vn -0.0000 1.0000 -0.0000
vn -0.9829 0.1840 -0.0000
vn -0.0000 0.9865 0.1635
vn -0.0000 0.8096 -0.5870
vn -0.0000 0.6236 0.7817
vn -0.0000 -0.9961 0.0882
vn -0.0000 -0.3197 -0.9475
vn -0.0000 -0.3197 0.9475
vn -0.0000 0.6742 0.7386
vn -0.0000 -0.9961 -0.0882
vn -0.0000 -0.1089 -0.9941
vn -0.0000 -0.5110 0.8596
vn -0.0000 0.5110 0.8596
vn -0.0000 -0.9648 -0.2631
vn -0.0000 0.1089 -0.9941
vn -0.0000 -0.6742 0.7386
vn -0.0000 0.3197 0.9475
vn -0.0000 -0.9013 -0.4331
vn -0.0000 0.3197 -0.9475
vn -0.0000 -0.8047 0.5937
vn -0.0000 0.1089 0.9941
vn -0.0000 -0.8047 -0.5937
vn -0.0000 0.5110 -0.8596
vn -0.0000 -0.9013 0.4331
vn -0.0000 -0.6742 -0.7386
vn -0.0000 0.6742 -0.7386
vn -0.0000 -0.9648 0.2631
vn -0.0000 -0.1089 0.9941
vn -0.0000 -0.5110 -0.8596
vn -0.0000 -0.8084 0.5887
vn -0.0000 0.1103 0.9939
vn -0.0000 -0.8084 -0.5887
vn -0.0000 0.5160 -0.8566
vn -0.0000 -0.9035 0.4285
vn -0.0000 -0.6790 -0.7341
vn -0.0000 -0.9656 0.2599
vn -0.0000 -0.1103 0.9939
vn -0.0000 -0.5160 -0.8566
vn -0.0000 -0.9962 0.0871
vn -0.0000 -0.3235 -0.9462
vn -0.0000 -0.3235 0.9462
vn -0.0000 -0.9962 -0.0871
vn -0.0000 -0.1103 -0.9939
vn -0.0000 -0.5160 0.8566
vn -0.0000 0.5160 0.8566
vn -0.0000 -0.9656 -0.2599
vn -0.0000 0.1103 -0.9939
vn -0.0000 -0.6790 0.7341
vn -0.0000 0.3235 0.9462
vn -0.0000 -0.9035 -0.4285
vn -0.0000 0.3235 -0.9462
vt 0.625000 0.205815
vt 0.625000 0.250000
vt 0.375000 0.250000
vt 0.375000 0.214580
vt 0.390214 0.215620
vt 0.416742 0.216649
vt 0.444329 0.216996
vt 0.471917 0.216649
vt 0.498444 0.215620
vt 0.522892 0.213948
vt 0.544320 0.211699
vt 0.561906 0.208959
vt 0.574974 0.205833
vt 0.575015 0.205815
vt 0.625000 0.500000
vt 0.375000 0.500000
vt 0.375000 0.535420
vt 0.625000 0.544185
vt 0.575015 0.544185
vt 0.574974 0.544167
vt 0.561906 0.541041
vt 0.544320 0.538301
vt 0.522891 0.536051
vt 0.498444 0.534380
vt 0.471917 0.533351
vt 0.444329 0.533004
vt 0.416742 0.533351
vt 0.390214 0.534380
vt 0.625000 0.661076
vt 0.625000 0.685194
vt 0.625000 0.661076
vt 0.625000 0.585884
vt 0.160804 0.713220
vt 0.160804 0.709558
vt 0.160804 0.706654
vt 0.160804 0.704432
vt 0.160804 0.702548
vt 0.160804 0.700807
vt 0.160804 0.699067
vt 0.160804 0.697183
vt 0.160804 0.694961
vt 0.160804 0.692057
vt 0.160804 0.688394
vt 0.149451 0.688394
vt 0.149451 0.687538
vt 0.149451 0.685194
vt 0.350387 0.685194
vt 0.350387 0.687538
vt 0.350387 0.688394
vt 0.337254 0.688394
vt 0.337254 0.692057
vt 0.337254 0.694960
vt 0.337254 0.697183
vt 0.337254 0.699067
vt 0.337254 0.700807
vt 0.337254 0.702548
vt 0.337254 0.704432
vt 0.337254 0.706654
vt 0.337254 0.709558
vt 0.337254 0.713220
vt 0.350387 0.713220
vt 0.350387 0.714076
vt 0.350387 0.716475
vt 0.375000 0.716475
vt 0.375000 0.750000
vt 0.125000 0.750000
vt 0.125000 0.716475
vt 0.149451 0.716475
vt 0.149451 0.714077
vt 0.149451 0.713220
vt 0.514455 0.685194
vt 0.625000 0.685568
vt 0.624988 0.686580
vt 0.624953 0.687592
vt 0.624895 0.688603
vt 0.624813 0.689614
vt 0.624708 0.690623
vt 0.624580 0.691631
vt 0.624429 0.692638
vt 0.624254 0.693643
vt 0.624056 0.694647
vt 0.623835 0.695647
vt 0.623591 0.696646
vt 0.623324 0.697641
vt 0.623034 0.698634
vt 0.622721 0.699623
vt 0.622385 0.700609
vt 0.622027 0.701592
vt 0.621646 0.702570
vt 0.621242 0.703544
vt 0.620817 0.704514
vt 0.620368 0.705479
vt 0.619898 0.706439
vt 0.619405 0.707394
vt 0.618891 0.708343
vt 0.618354 0.709287
vt 0.617796 0.710225
vt 0.617217 0.711157
vt 0.616616 0.712083
vt 0.615993 0.713002
vt 0.615350 0.713914
vt 0.614686 0.714819
vt 0.614000 0.715718
vt 0.613294 0.716608
vt 0.612568 0.717491
vt 0.611821 0.718367
vt 0.611055 0.719234
vt 0.610268 0.720092
vt 0.609462 0.720943
vt 0.608636 0.721784
vt 0.607791 0.722617
vt 0.606927 0.723440
vt 0.606043 0.724254
vt 0.605141 0.725059
vt 0.604221 0.725854
vt 0.603283 0.726638
vt 0.602326 0.727413
vt 0.601352 0.728178
vt 0.600360 0.728931
vt 0.599351 0.729675
vt 0.598325 0.730407
vt 0.597282 0.731128
vt 0.596223 0.731838
vt 0.595147 0.732537
vt 0.594056 0.733224
vt 0.592949 0.733899
vt 0.591826 0.734562
vt 0.590688 0.735214
vt 0.589535 0.735853
vt 0.588368 0.736479
vt 0.587186 0.737093
vt 0.585990 0.737695
vt 0.584781 0.738283
vt 0.583558 0.738858
vt 0.582322 0.739421
vt 0.581073 0.739970
vt 0.579812 0.740505
vt 0.578538 0.741027
vt 0.577253 0.741536
vt 0.575956 0.742030
vt 0.574648 0.742511
vt 0.573329 0.742977
vt 0.571999 0.743430
vt 0.570659 0.743868
vt 0.569309 0.744291
vt 0.567950 0.744701
vt 0.566581 0.745095
vt 0.565203 0.745475
vt 0.563817 0.745840
vt 0.562422 0.746191
vt 0.561019 0.746526
vt 0.559609 0.746846
vt 0.558192 0.747152
vt 0.556768 0.747442
vt 0.555337 0.747716
vt 0.553900 0.747976
vt 0.552458 0.748220
vt 0.551010 0.748448
vt 0.549556 0.748661
vt 0.548099 0.748859
vt 0.546636 0.749041
vt 0.545170 0.749207
vt 0.543700 0.749357
vt 0.542227 0.749492
vt 0.540750 0.749611
vt 0.539272 0.749714
vt 0.537791 0.749801
vt 0.536308 0.749873
vt 0.534824 0.749928
vt 0.533338 0.749968
vt 0.531852 0.749992
vt 0.530366 0.750000
vt 0.390214 0.717514
vt 0.416741 0.718543
vt 0.444329 0.718891
vt 0.471916 0.718544
vt 0.498444 0.717515
vt 0.522891 0.715844
vt 0.544320 0.713594
vt 0.561906 0.710854
vt 0.574973 0.707728
vt 0.583020 0.704335
vt 0.585738 0.700808
vt 0.583021 0.697280
vt 0.574974 0.693887
vt 0.561906 0.690760
vt 0.544320 0.688020
vt 0.522892 0.685771
vt 0.160804 0.563639
vt 0.160804 0.559976
vt 0.160804 0.557072
vt 0.160804 0.554850
vt 0.160804 0.552966
vt 0.160804 0.551225
vt 0.160804 0.549485
vt 0.160804 0.547601
vt 0.160804 0.545379
vt 0.160804 0.544185
vt 0.337254 0.544185
vt 0.337254 0.545379
vt 0.337254 0.547601
vt 0.337254 0.549485
vt 0.337254 0.551225
vt 0.337254 0.552966
vt 0.337254 0.554850
vt 0.337254 0.557072
vt 0.337254 0.559976
vt 0.337254 0.563638
vt 0.350387 0.563638
vt 0.350387 0.564357
vt 0.350387 0.566755
vt 0.375000 0.566755
vt 0.375000 0.685140
vt 0.350387 0.685140
vt 0.149451 0.685140
vt 0.125000 0.685140
vt 0.125000 0.566755
vt 0.149451 0.566755
vt 0.149451 0.564357
vt 0.149451 0.563639
vt 0.575015 0.544185
vt 0.514455 0.685194
vt 0.498444 0.684100
vt 0.471917 0.683071
vt 0.444329 0.682723
vt 0.416742 0.683071
vt 0.390214 0.684100
vt 0.375000 0.685140
vt 0.390214 0.567795
vt 0.416742 0.568824
vt 0.444329 0.569172
vt 0.471917 0.568824
vt 0.498444 0.567795
vt 0.522891 0.566124
vt 0.544320 0.563875
vt 0.561906 0.561135
vt 0.574974 0.558008
vt 0.583021 0.554616
vt 0.585738 0.551088
vt 0.583021 0.547560
vt 0.530366 1.000000
vt 0.375000 1.000000
vt 0.624988 0.063420
vt 0.625000 0.064432
vt 0.625000 0.064806
vt 0.514455 0.064806
vt 0.522892 0.064229
vt 0.544320 0.061980
vt 0.561906 0.059240
vt 0.574974 0.056113
vt 0.583020 0.052721
vt 0.585738 0.049193
vt 0.583020 0.045665
vt 0.574974 0.042272
vt 0.561906 0.039146
vt 0.544320 0.036405
vt 0.522891 0.034156
vt 0.498444 0.032485
vt 0.471916 0.031456
vt 0.444329 0.031109
vt 0.416741 0.031456
vt 0.390214 0.032485
vt 0.375000 0.033525
vt 0.375000 0.000000
vt 0.530366 0.000000
vt 0.531852 0.000008
vt 0.533338 0.000032
vt 0.534824 0.000072
vt 0.536308 0.000127
vt 0.537791 0.000199
vt 0.539272 0.000286
vt 0.540750 0.000389
vt 0.542227 0.000508
vt 0.543700 0.000643
vt 0.545170 0.000793
vt 0.546636 0.000959
vt 0.548098 0.001141
vt 0.549556 0.001339
vt 0.551010 0.001552
vt 0.552458 0.001780
vt 0.553900 0.002024
vt 0.555337 0.002284
vt 0.556768 0.002558
vt 0.558192 0.002848
vt 0.559609 0.003154
vt 0.561019 0.003474
vt 0.562422 0.003809
vt 0.563817 0.004159
vt 0.565203 0.004525
vt 0.566581 0.004905
vt 0.567950 0.005299
vt 0.569309 0.005708
vt 0.570659 0.006132
vt 0.571999 0.006570
vt 0.573329 0.007023
vt 0.574648 0.007489
vt 0.575956 0.007970
vt 0.577253 0.008464
vt 0.578539 0.008973
vt 0.579812 0.009495
vt 0.581073 0.010030
vt 0.582322 0.010579
vt 0.583558 0.011142
vt 0.584781 0.011717
vt 0.585990 0.012305
vt 0.587186 0.012907
vt 0.588368 0.013521
vt 0.589535 0.014147
vt 0.590688 0.014786
vt 0.591826 0.015438
vt 0.592948 0.016101
vt 0.594056 0.016776
vt 0.595147 0.017463
vt 0.596223 0.018162
vt 0.597282 0.018872
vt 0.598325 0.019593
vt 0.599351 0.020325
vt 0.600360 0.021068
vt 0.601352 0.021822
vt 0.602326 0.022587
vt 0.603283 0.023362
vt 0.604221 0.024146
vt 0.605142 0.024941
vt 0.606043 0.025746
vt 0.606927 0.026560
vt 0.607791 0.027383
vt 0.608636 0.028216
vt 0.609462 0.029057
vt 0.610268 0.029908
vt 0.611055 0.030766
vt 0.611821 0.031633
vt 0.612568 0.032509
vt 0.613294 0.033392
vt 0.614000 0.034282
vt 0.614685 0.035181
vt 0.615350 0.036086
vt 0.615993 0.036998
vt 0.616616 0.037917
vt 0.617217 0.038843
vt 0.617796 0.039775
vt 0.618354 0.040713
vt 0.618891 0.041657
vt 0.619405 0.042606
vt 0.619898 0.043561
vt 0.620368 0.044521
vt 0.620817 0.045486
vt 0.621242 0.046456
vt 0.621646 0.047430
vt 0.622027 0.048408
vt 0.622385 0.049391
vt 0.622721 0.050377
vt 0.623034 0.051366
vt 0.623324 0.052359
vt 0.623591 0.053354
vt 0.623835 0.054353
vt 0.624056 0.055353
vt 0.624254 0.056357
vt 0.624429 0.057362
vt 0.624580 0.058368
vt 0.624708 0.059377
vt 0.624813 0.060386
vt 0.624895 0.061397
vt 0.624953 0.062408
vt 0.337254 0.538812
vt 0.337254 0.542475
vt 0.337254 0.544185
vt 0.160804 0.544185
vt 0.160804 0.542475
vt 0.160804 0.538812
vt 0.149451 0.538812
vt 0.149451 0.537819
vt 0.149451 0.535420
vt 0.125000 0.535420
vt 0.125000 0.500000
vt 0.350387 0.535420
vt 0.350387 0.537819
vt 0.350387 0.538812
vt 0.875000 0.500000
vt 0.875000 0.544185
vt 0.625000 0.164116
vt 0.625000 0.088924
vt 0.875000 0.685194
vt 0.875000 0.685568
vt 0.875000 0.686580
vt 0.875000 0.687592
vt 0.875000 0.688603
vt 0.875000 0.689614
vt 0.875000 0.690623
vt 0.875000 0.691632
vt 0.875000 0.692638
vt 0.875000 0.693643
vt 0.875000 0.694647
vt 0.875000 0.695647
vt 0.875000 0.696646
vt 0.875000 0.697641
vt 0.875000 0.698634
vt 0.875000 0.699623
vt 0.875000 0.700609
vt 0.875000 0.701592
vt 0.875000 0.702570
vt 0.875000 0.703544
vt 0.875000 0.704514
vt 0.875000 0.705479
vt 0.875000 0.706439
vt 0.875000 0.707394
vt 0.875000 0.708343
vt 0.875000 0.709287
vt 0.875000 0.710225
vt 0.875000 0.711157
vt 0.875000 0.712083
vt 0.875000 0.713002
vt 0.875000 0.713914
vt 0.875000 0.714820
vt 0.875000 0.715718
vt 0.875000 0.716608
vt 0.875000 0.717491
vt 0.875000 0.718367
vt 0.875000 0.719234
vt 0.875000 0.720092
vt 0.875000 0.720943
vt 0.875000 0.721784
vt 0.875000 0.722617
vt 0.875000 0.723440
vt 0.875000 0.724254
vt 0.875000 0.725059
vt 0.875000 0.725854
vt 0.875000 0.726638
vt 0.875000 0.727413
vt 0.875000 0.728178
vt 0.875000 0.728932
vt 0.875000 0.729675
vt 0.875000 0.730407
vt 0.625000 1.000000
vt 0.596223 1.000000
vt 0.595147 1.000000
vt 0.594056 1.000000
vt 0.592949 1.000000
vt 0.591826 1.000000
vt 0.590688 1.000000
vt 0.589535 1.000000
vt 0.588368 1.000000
vt 0.587186 1.000000
vt 0.585990 1.000000
vt 0.584781 1.000000
vt 0.583558 1.000000
vt 0.582322 1.000000
vt 0.581073 1.000000
vt 0.579812 1.000000
vt 0.578538 1.000000
vt 0.577253 1.000000
vt 0.575956 1.000000
vt 0.574648 1.000000
vt 0.573329 1.000000
vt 0.571999 1.000000
vt 0.570659 1.000000
vt 0.569309 1.000000
vt 0.567950 1.000000
vt 0.566581 1.000000
vt 0.565203 1.000000
vt 0.563817 1.000000
vt 0.562422 1.000000
vt 0.561019 1.000000
vt 0.559609 1.000000
vt 0.558192 1.000000
vt 0.556768 1.000000
vt 0.555337 1.000000
vt 0.553900 1.000000
vt 0.552458 1.000000
vt 0.551010 1.000000
vt 0.549556 1.000000
vt 0.548099 1.000000
vt 0.546636 1.000000
vt 0.545170 1.000000
vt 0.543700 1.000000
vt 0.542227 1.000000
vt 0.540750 1.000000
vt 0.539272 1.000000
vt 0.537791 1.000000
vt 0.536308 1.000000
vt 0.534824 1.000000
vt 0.533338 1.000000
vt 0.531852 1.000000
vt 0.531852 0.750000
vt 0.533338 0.750000
vt 0.534824 0.750000
vt 0.536308 0.750000
vt 0.537791 0.750000
vt 0.539272 0.750000
vt 0.540750 0.750000
vt 0.542227 0.750000
vt 0.543700 0.750000
vt 0.545170 0.750000
vt 0.546636 0.750000
vt 0.548099 0.750000
vt 0.549556 0.750000
vt 0.551010 0.750000
vt 0.552458 0.750000
vt 0.553900 0.750000
vt 0.555337 0.750000
vt 0.556768 0.750000
vt 0.558192 0.750000
vt 0.559609 0.750000
vt 0.561019 0.750000
vt 0.562422 0.750000
vt 0.563817 0.750000
vt 0.565203 0.750000
vt 0.566581 0.750000
vt 0.567950 0.750000
vt 0.569309 0.750000
vt 0.570659 0.750000
vt 0.571999 0.750000
vt 0.573329 0.750000
vt 0.574648 0.750000
vt 0.575956 0.750000
vt 0.577253 0.750000
vt 0.578539 0.750000
vt 0.579812 0.750000
vt 0.581073 0.750000
vt 0.582322 0.750000
vt 0.583558 0.750000
vt 0.584781 0.750000
vt 0.585990 0.750000
vt 0.587186 0.750000
vt 0.588368 0.750000
vt 0.589535 0.750000
vt 0.590688 0.750000
vt 0.591826 0.750000
vt 0.592948 0.750000
vt 0.594056 0.750000
vt 0.595147 0.750000
vt 0.596223 0.750000
vt 0.625000 0.750000
vt 0.625000 0.730407
vt 0.625000 0.729675
vt 0.625000 0.728932
vt 0.625000 0.728178
vt 0.625000 0.727413
vt 0.625000 0.726638
vt 0.625000 0.725854
vt 0.625000 0.725059
vt 0.625000 0.724254
vt 0.625000 0.723440
vt 0.625000 0.722617
vt 0.625000 0.721784
vt 0.625000 0.720943
vt 0.625000 0.720092
vt 0.625000 0.719234
vt 0.625000 0.718367
vt 0.625000 0.717491
vt 0.625000 0.716608
vt 0.625000 0.715718
vt 0.625000 0.714819
vt 0.625000 0.713914
vt 0.625000 0.713002
vt 0.625000 0.712083
vt 0.625000 0.711157
vt 0.625000 0.710225
vt 0.625000 0.709287
vt 0.625000 0.708343
vt 0.625000 0.707394
vt 0.625000 0.706439
vt 0.625000 0.705479
vt 0.625000 0.704514
vt 0.625000 0.703544
vt 0.625000 0.702570
vt 0.625000 0.701592
vt 0.625000 0.700609
vt 0.625000 0.699623
vt 0.625000 0.698634
vt 0.625000 0.697641
vt 0.625000 0.696646
vt 0.625000 0.695647
vt 0.625000 0.694647
vt 0.625000 0.693643
vt 0.625000 0.692638
vt 0.625000 0.691632
vt 0.625000 0.690623
vt 0.625000 0.689614
vt 0.625000 0.688603
vt 0.625000 0.687592
vt 0.625000 0.686580
vt 0.875000 0.544185
vt 0.583020 0.202440
vt 0.585738 0.198912
vt 0.583021 0.195384
vt 0.574974 0.191992
vt 0.561906 0.188865
vt 0.544320 0.186125
vt 0.522891 0.183876
vt 0.498444 0.182205
vt 0.471917 0.181176
vt 0.444329 0.180828
vt 0.416742 0.181176
vt 0.390215 0.182205
vt 0.375000 0.183245
vt 0.375000 0.064860
vt 0.390215 0.065900
vt 0.416742 0.066929
vt 0.444329 0.067277
vt 0.471917 0.066929
vt 0.498444 0.065900
vt 0.832241 0.603203
vt 0.698929 0.347575
vt 0.832241 0.603203
vt 0.500000 0.500000
vt 0.402455 0.990393
vt 0.500000 1.000000
vt 0.308658 0.961940
vt 0.222215 0.915735
vt 0.146447 0.853553
vt 0.084265 0.777785
vt 0.038060 0.691342
vt 0.009607 0.597545
vt 0.000000 0.500000
vt 0.009607 0.402455
vt 0.038060 0.308658
vt 0.264505 0.402455
vt 0.084265 0.222215
vt 0.213637 0.308658
vt 0.146447 0.146447
vt 0.222215 0.222215
vt 0.222215 0.084265
vt 0.263763 0.146447
vt 0.308658 0.038060
vt 0.327797 0.084265
vt 0.402455 0.009607
vt 0.408114 0.038060
vt 0.500000 0.000000
vt 0.500000 0.009607
vt 0.597545 0.009607
vt 0.691342 0.038060
vt 0.777785 0.084265
vt 0.787468 0.212532
vt 0.772476 0.092211
vt 0.787467 0.307920
vt 0.787468 0.212532
vt 0.787468 0.380927
vt 0.787467 0.442819
vt 0.787468 0.380927
vt 1.000000 0.500000
vt 0.787467 0.442819
vt 0.787467 0.557181
vt 0.787468 0.619073
vt 0.638047 0.557181
vt 0.787467 0.692080
vt 0.678205 0.619073
vt 0.787468 0.787468
vt 0.692080 0.692080
vt 0.777785 0.915735
vt 0.772476 0.907789
vt 0.692080 0.787468
vt 0.691342 0.961940
vt 0.672203 0.915735
vt 0.597545 0.990393
vt 0.591886 0.961940
vt 0.500000 0.990393
vt 0.310880 0.037386
vt 0.402455 0.990393
vt 0.308658 0.961940
vt 0.310879 0.962613
vt 0.787467 0.907789
vt 0.787468 0.907789
vt 0.403704 0.009484
vt 0.224894 0.917167
vt 0.775106 0.917167
vt 0.009976 0.401239
vt 0.596296 0.009484
vt 0.148995 0.855645
vt 0.597545 0.990393
vt 0.689121 0.962613
vt 0.691342 0.961940
vt 0.039165 0.306592
vt 0.689120 0.037386
vt 0.086202 0.780145
vt 0.596297 0.990516
vt 0.086203 0.219854
vt 0.775105 0.082833
vt 0.039164 0.693407
vt 0.148995 0.144355
vt 0.787468 0.092211
vt 0.787467 0.092211
vt 0.009976 0.598760
vt 0.403703 0.990516
vt 0.224895 0.082833
vt 0.264506 0.402455
vt 0.222215 0.222215
vt 0.263763 0.146447
vt 0.327797 0.084265
vt 0.408115 0.038060
vt 0.500000 0.009607
vt 0.787468 0.212532
vt 0.787468 0.212532
vt 0.787468 0.442819
vt 0.787468 0.557181
vt 0.638047 0.557181
vt 0.787468 0.692080
vt 0.678205 0.619073
vt 0.787468 0.787468
vt 0.731294 0.731294
vt 0.692080 0.692080
vt 0.692080 0.787468
vt 0.591886 0.961940
vt 0.500000 0.990392
vt 0.000445 0.504520
vt 0.309235 0.037885
vt 0.312523 0.963112
vt 0.787468 0.907789
vt 0.009295 0.405623
vt 0.402833 0.009570
vt 0.227098 0.918345
vt 0.772901 0.918345
vt 0.037525 0.310424
vt 0.597167 0.009570
vt 0.151460 0.857668
vt 0.687477 0.963112
vt 0.083932 0.222838
vt 0.690765 0.037885
vt 0.088587 0.783051
vt 0.595426 0.990601
vt 0.777309 0.084011
vt 0.041138 0.697100
vt 0.146530 0.146378
vt 0.787468 0.092211
vt 0.011268 0.603020
vt 0.404574 0.990601
vt 0.222691 0.084011
vt 0.408114 0.961940
vt 0.327797 0.915735
vt 0.263763 0.853553
vt 0.222215 0.777785
vt 0.213637 0.691342
vt 0.264505 0.597545
vt 0.591886 0.038060
vt 0.672203 0.084265
vt 0.692080 0.212533
vt 0.772476 0.092211
vt 0.692080 0.307920
vt 0.787467 0.212533
vt 0.678205 0.380927
vt 0.638047 0.442819
vt 0.787467 0.380927
vt 0.787467 0.557181
vt 0.787467 0.619073
vt 0.787467 0.619073
vt 0.787467 0.787467
vt 0.772476 0.907789
vt 0.787467 0.787467
vt 0.308658 0.038060
vt 0.310879 0.037387
vt 0.310879 0.962613
vt 0.308658 0.961940
vt 0.787467 0.907789
vt 0.787467 0.907789
vt 0.777785 0.915735
vt 0.403703 0.009484
vt 0.224894 0.917167
vt 0.308658 0.961940
vt 0.691342 0.961940
vt 0.777785 0.915735
vt 0.775106 0.917167
vt 0.009976 0.401239
vt 0.596297 0.009484
vt 0.148995 0.855645
vt 0.597545 0.990393
vt 0.689121 0.962613
vt 0.038060 0.308658
vt 0.039165 0.306592
vt 0.689121 0.037387
vt 0.086202 0.780145
vt 0.084265 0.777785
vt 0.146447 0.853553
vt 0.596297 0.990516
vt 0.084265 0.222215
vt 0.086203 0.219854
vt 0.775105 0.082833
vt 0.777785 0.084265
vt 0.039164 0.693408
vt 0.084265 0.777785
vt 0.148995 0.144355
vt 0.787467 0.092211
vt 0.777785 0.084265
vt 0.787467 0.092211
vt 0.009976 0.598760
vt 0.403703 0.990516
vt 0.402455 0.990393
vt 0.224895 0.082833
vt 0.408114 0.961940
vt 0.327797 0.915734
vt 0.263763 0.853553
vt 0.222215 0.777785
vt 0.213637 0.691342
vt 0.264506 0.597545
vt 0.591886 0.038060
vt 0.672203 0.084265
vt 0.692080 0.212533
vt 0.772476 0.092211
vt 0.692080 0.307920
vt 0.787467 0.212533
vt 0.678205 0.380927
vt 0.638047 0.442819
vt 0.787468 0.557181
vt 0.787468 0.619073
vt 0.846157 0.731295
vt 0.000445 0.504521
vt 0.309235 0.037885
vt 0.312523 0.963112
vt 0.787467 0.907789
vt 0.787467 0.907789
vt 0.009295 0.405623
vt 0.402833 0.009570
vt 0.227099 0.918345
vt 0.308658 0.961940
vt 0.772901 0.918345
vt 0.037524 0.310425
vt 0.597167 0.009570
vt 0.151460 0.857668
vt 0.687477 0.963112
vt 0.083932 0.222838
vt 0.597545 0.009607
vt 0.690765 0.037885
vt 0.088588 0.783052
vt 0.595426 0.990601
vt 0.777310 0.084011
vt 0.084265 0.777785
vt 0.041138 0.697100
vt 0.146530 0.146378
vt 0.787467 0.092211
vt 0.011268 0.603021
vt 0.404574 0.990601
vt 0.222690 0.084011
vt 0.418625 0.909098
vt 0.417052 0.917008
vt 0.330546 0.909098
vt 0.330619 0.908922
vt 0.340129 0.885962
vt 0.242108 0.885962
vt 0.242768 0.884975
vt 0.267283 0.848285
vt 0.151715 0.848285
vt 0.153912 0.846088
vt 0.202782 0.797218
vt 0.202782 0.797218
vt 0.206245 0.793755
vt 0.149168 0.734419
vt 0.149168 0.734419
vt 0.155800 0.729987
vt 0.108705 0.662080
vt 0.108705 0.662080
vt 0.120404 0.657234
vt 0.083233 0.582900
vt 0.083233 0.582900
vt 0.106398 0.578292
vt 0.480875 0.496196
vt 0.081552 0.416765
vt 0.264505 0.402455
vt 0.299054 0.416765
vt 0.292618 0.414099
vt 0.105624 0.336644
vt 0.213637 0.308658
vt 0.255521 0.336644
vt 0.253296 0.335158
vt 0.145198 0.262929
vt 0.222215 0.222215
vt 0.262929 0.262929
vt 0.262405 0.262405
vt 0.198637 0.198637
vt 0.198579 0.198579
vt 0.298597 0.198579
vt 0.263668 0.146304
vt 0.263525 0.146090
vt 0.327797 0.084265
vt 0.353405 0.146089
vt 0.337386 0.107416
vt 0.337325 0.107269
vt 0.408114 0.038060
vt 0.421881 0.107269
vt 0.417147 0.083470
vt 0.417141 0.083438
vt 0.500000 0.009607
vt 0.500000 0.083438
vt 0.500000 0.075384
vt 0.582859 0.083438
vt 0.584461 0.075384
vt 0.672546 0.083438
vt 0.672533 0.083469
vt 0.662675 0.107269
vt 0.745138 0.133125
vt 0.679431 0.066815
vt 0.762414 0.107269
vt 0.762316 0.107416
vt 0.736476 0.146089
vt 0.847009 0.152991
vt 0.736476 0.146089
vt 0.736332 0.146304
vt 0.745138 0.866875
vt 0.726780 0.839401
vt 0.731249 0.846088
vt 0.732717 0.848285
vt 0.659871 0.885962
vt 0.679431 0.933185
vt 0.651965 0.866875
vt 0.644265 0.848285
vt 0.659462 0.884976
vt 0.581375 0.909098
vt 0.591886 0.961940
vt 0.576773 0.885962
vt 0.581340 0.908922
vt 0.500000 0.917008
vt 0.500000 0.990393
vt 0.500000 0.909098
vt 0.745138 0.066815
vt 0.745138 0.066815
vt 0.037914 0.690859
vt 0.009607 0.597545
vt 0.402455 0.990393
vt 0.402455 0.009607
vt 0.222215 0.915735
vt 0.745138 0.933185
vt 0.745138 0.933185
vt 0.597545 0.009607
vt 0.500000 0.917007
vt 0.500000 0.909097
vt 0.418660 0.908921
vt 0.418626 0.909097
vt 0.408114 0.961940
vt 0.423227 0.885962
vt 0.340538 0.884975
vt 0.340129 0.885962
vt 0.327797 0.915735
vt 0.355736 0.848285
vt 0.268752 0.846087
vt 0.267284 0.848284
vt 0.263763 0.853553
vt 0.301406 0.797217
vt 0.202783 0.797217
vt 0.222215 0.777785
vt 0.265582 0.734419
vt 0.206246 0.793754
vt 0.149168 0.734418
vt 0.213637 0.691342
vt 0.257431 0.662079
vt 0.155802 0.729986
vt 0.108706 0.662079
vt 0.264505 0.597545
vt 0.299862 0.582900
vt 0.120406 0.657233
vt 0.083234 0.582900
vt 0.106403 0.578291
vt 0.081552 0.416765
vt 0.480872 0.496195
vt 0.105624 0.336644
vt 0.068146 0.414099
vt 0.145198 0.262929
vt 0.102035 0.335157
vt 0.105624 0.336644
vt 0.198579 0.198579
vt 0.198636 0.198636
vt 0.144413 0.262405
vt 0.145198 0.262929
vt 0.263524 0.146089
vt 0.263667 0.146303
vt 0.237585 0.107269
vt 0.237684 0.107416
vt 0.263524 0.146089
vt 0.337325 0.107268
vt 0.327454 0.083438
vt 0.327467 0.083469
vt 0.417141 0.083438
vt 0.415538 0.075383
vt 0.500000 0.075383
vt 0.500000 0.009607
vt 0.500000 0.083438
vt 0.582859 0.083438
vt 0.591886 0.038060
vt 0.578119 0.107268
vt 0.582853 0.083469
vt 0.662675 0.107268
vt 0.679431 0.066815
vt 0.651964 0.133125
vt 0.646595 0.146089
vt 0.662614 0.107416
vt 0.736333 0.146303
vt 0.736476 0.146089
vt 0.745138 0.133125
vt 0.731864 0.152991
vt 0.839400 0.839400
vt 0.745138 0.866875
vt 0.848285 0.848285
vt 0.846087 0.846087
vt 0.732716 0.848284
vt 0.745138 0.866875
vt 0.679431 0.933185
vt 0.757891 0.885962
vt 0.757232 0.884975
vt 0.659871 0.885962
vt 0.669454 0.909097
vt 0.669381 0.908921
vt 0.581374 0.909097
vt 0.582948 0.917007
vt 0.597545 0.990393
vt 0.745138 0.066815
vt 0.691342 0.038060
vt 0.084265 0.777785
vt 0.146447 0.146447
vt 0.037914 0.690859
vt 0.308658 0.038060
vt 0.402455 0.009607
vt 0.745138 0.933185
vt 0.745138 0.933185
vt 0.691342 0.961940
vt 0.597545 0.009607
vt 0.417883 0.912830
vt 0.416295 0.920812
vt 0.329000 0.912830
vt 0.329043 0.912727
vt 0.338727 0.889347
vt 0.239847 0.889347
vt 0.240225 0.888780
vt 0.265404 0.851098
vt 0.148902 0.851098
vt 0.150107 0.849893
vt 0.200680 0.799320
vt 0.200681 0.799320
vt 0.202441 0.797559
vt 0.147134 0.735778
vt 0.147134 0.735777
vt 0.150107 0.733791
vt 0.107022 0.662777
vt 0.107022 0.662777
vt 0.111219 0.661039
vt 0.082132 0.583119
vt 0.499997 0.500001
vt 0.082132 0.583119
vt 0.087271 0.582097
vt 0.087275 0.417904
vt 0.082132 0.416881
vt 0.264506 0.402455
vt 0.299333 0.416881
vt 0.111221 0.338963
vt 0.107023 0.337223
vt 0.256388 0.337223
vt 0.150108 0.266210
vt 0.147135 0.264223
vt 0.222215 0.222215
vt 0.264223 0.264223
vt 0.202441 0.202441
vt 0.200681 0.200681
vt 0.263763 0.146447
vt 0.300002 0.200681
vt 0.266210 0.150108
vt 0.265404 0.148902
vt 0.327797 0.084265
vt 0.354571 0.148902
vt 0.338962 0.111221
vt 0.338728 0.110654
vt 0.408114 0.038060
vt 0.422554 0.110654
vt 0.417904 0.087274
vt 0.417883 0.087171
vt 0.500000 0.087171
vt 0.500000 0.079188
vt 0.582117 0.087171
vt 0.583705 0.079188
vt 0.670999 0.087171
vt 0.670957 0.087274
vt 0.661272 0.110654
vt 0.679431 0.066815
vt 0.760153 0.110654
vt 0.759774 0.111221
vt 0.734596 0.148902
vt 0.843204 0.156796
vt 0.851098 0.148902
vt 0.849892 0.150108
vt 0.729322 0.843205
vt 0.733791 0.849893
vt 0.734596 0.851098
vt 0.679431 0.933185
vt 0.678808 0.931679
vt 0.651965 0.866875
vt 0.645430 0.851098
vt 0.661038 0.888780
vt 0.661273 0.889347
vt 0.582117 0.912830
vt 0.577446 0.889347
vt 0.582096 0.912727
vt 0.500000 0.990393
vt 0.500000 0.912830
vt 0.500000 0.920813
vt 0.745138 0.066815
vt 0.745138 0.066815
vt 0.308658 0.038060
vt 0.009607 0.402455
vt 0.252045 0.931679
vt 0.745138 0.933185
vt 0.500000 0.920812
vt 0.500000 0.912830
vt 0.417904 0.912727
vt 0.408114 0.961940
vt 0.422554 0.889347
vt 0.338962 0.888780
vt 0.338727 0.889347
vt 0.327797 0.915735
vt 0.354570 0.851098
vt 0.266209 0.849893
vt 0.265404 0.851098
vt 0.263763 0.853553
vt 0.300001 0.799319
vt 0.222215 0.777785
vt 0.264222 0.735778
vt 0.202441 0.797559
vt 0.147134 0.735777
vt 0.213637 0.691342
vt 0.256388 0.662777
vt 0.150107 0.733791
vt 0.107023 0.662777
vt 0.264504 0.597546
vt 0.299332 0.583120
vt 0.111220 0.661038
vt 0.082132 0.583119
vt 0.087273 0.582097
vt 0.082132 0.416881
vt 0.087275 0.417904
vt 0.107023 0.337224
vt 0.111221 0.338962
vt 0.107023 0.337224
vt 0.147134 0.264223
vt 0.150108 0.266210
vt 0.147134 0.264223
vt 0.148902 0.148902
vt 0.150108 0.150108
vt 0.239847 0.110654
vt 0.240226 0.111221
vt 0.265404 0.148903
vt 0.338727 0.110653
vt 0.329000 0.087170
vt 0.329043 0.087274
vt 0.417883 0.087170
vt 0.416295 0.079188
vt 0.500000 0.009608
vt 0.582117 0.087170
vt 0.591886 0.038060
vt 0.577446 0.110654
vt 0.582096 0.087274
vt 0.661273 0.110653
vt 0.679431 0.066814
vt 0.651965 0.133125
vt 0.645430 0.148902
vt 0.661038 0.111220
vt 0.734596 0.148903
vt 0.729322 0.156796
vt 0.733790 0.150108
vt 0.843205 0.843205
vt 0.851098 0.851098
vt 0.849893 0.849893
vt 0.745138 0.866875
vt 0.678807 0.931679
vt 0.679431 0.933185
vt 0.760153 0.889347
vt 0.759774 0.888780
vt 0.734596 0.851098
vt 0.661273 0.889347
vt 0.671000 0.912830
vt 0.670957 0.912726
vt 0.583705 0.920812
vt 0.745138 0.066815
vt 0.745138 0.066815
vt 0.222215 0.084265
vt 0.252045 0.931679
vt 0.745138 0.933185
vt 0.745138 0.933185
s 0
f 5/1/1 3/2/1 2/3/1 450/4/1 451/5/1 453/6/1 455/7/1 457/8/1 456/9/1 454/10/1 452/11/1 449/12/1 448/13/1 447/14/1
f 2/3/2 3/2/2 7/15/2 6/16/2
f 458/17/3 6/16/3 7/15/3 386/18/3 459/19/3 460/20/3 463/21/3 465/22/3 464/23/3 466/24/3 468/25/3 467/26/3 462/27/3 461/28/3
f 393/29/4 9/30/4 391/31/4 399/32/4 386/18/4 400/32/4
f 414/33/5 415/34/5 416/35/5 420/36/5 419/37/5 421/38/5 422/39/5 418/40/5 417/41/5 401/42/5 407/43/5 474/44/5 469/45/5 471/46/5 470/47/5 473/48/5 472/49/5 413/50/5 412/51/5 411/52/5 410/53/5 409/54/5 408/55/5 406/56/5 405/57/5 404/58/5 403/59/5 402/60/5 481/61/5 480/62/5 479/63/5 482/64/5 4/65/5 1/66/5 475/67/5 477/68/5 476/69/5 478/70/5
f 484/71/3 9/30/3 191/72/3 195/73/3 197/74/3 199/75/3 201/76/3 203/77/3 205/78/3 207/79/3 208/80/3 210/81/3 211/82/3 214/83/3 216/84/3 218/85/3 220/86/3 222/87/3 226/88/3 231/89/3 236/90/3 238/91/3 244/92/3 246/93/3 248/94/3 250/95/3 252/96/3 254/97/3 256/98/3 260/99/3 262/100/3 267/101/3 271/102/3 273/103/3 278/104/3 282/105/3 286/106/3 290/107/3 294/108/3 298/109/3 300/110/3 302/111/3 303/112/3 304/113/3 305/114/3 306/115/3 307/116/3 308/117/3 309/118/3 310/119/3 314/120/3 315/121/3 317/122/3 319/123/3 320/124/3 321/125/3 322/126/3 323/127/3 324/128/3 325/129/3 326/130/3 327/131/3 328/132/3 329/133/3 330/134/3 331/135/3 332/136/3 333/137/3 334/138/3 335/139/3 336/140/3 337/141/3 338/142/3 339/143/3 340/144/3 341/145/3 342/146/3 343/147/3 344/148/3 345/149/3 346/150/3 347/151/3 348/152/3 349/153/3 350/154/3 351/155/3 352/156/3 354/157/3 356/158/3 358/159/3 360/160/3 362/161/3 365/162/3 366/163/3 369/164/3 370/165/3 372/166/3 374/167/3 376/168/3 379/169/3 381/170/3 383/171/3 193/172/3 4/65/3 482/64/3 492/173/3 493/174/3 494/175/3 495/176/3 496/177/3 497/178/3 498/179/3 499/180/3 490/181/3 491/182/3 483/183/3 489/184/3 488/185/3 487/186/3 486/187/3 485/188/3
f 423/189/5 424/190/5 425/191/5 426/192/5 427/193/5 428/194/5 429/195/5 430/196/5 431/197/5 432/198/5 435/199/5 433/200/5 434/201/5 441/202/5 440/203/5 439/204/5 438/205/5 436/206/5 437/207/5 442/208/5 500/209/5 501/210/5 502/211/5 504/212/5 503/213/5 508/214/5 470/47/5 471/46/5 507/215/5 505/216/5 506/217/5 509/218/5 510/219/5 511/220/5
f 459/221/3 386/18/3 399/32/3 391/31/3 9/30/3 484/222/3 520/223/3 518/224/3 516/225/3 517/226/3 519/227/3 503/228/3 504/212/3 523/229/3 524/230/3 527/231/3 528/232/3 526/233/3 525/234/3 522/235/3 521/236/3 515/237/3 513/238/3 514/239/3 512/240/3
f 4/65/6 193/172/6 10/241/6 1/242/6
f 190/243/1 11/244/1 8/245/1 529/246/1 531/247/1 532/248/1 533/249/1 534/250/1 541/251/1 544/252/1 545/253/1 543/254/1 542/255/1 540/256/1 539/257/1 538/258/1 537/259/1 536/260/1 535/261/1 530/262/1 475/263/1 1/264/1 10/265/1 12/266/1 13/267/1 14/268/1 15/269/1 16/270/1 17/271/1 18/272/1 19/273/1 20/274/1 21/275/1 22/276/1 23/277/1 24/278/1 25/279/1 26/280/1 27/281/1 28/282/1 29/283/1 30/284/1 31/285/1 36/286/1 39/287/1 43/288/1 47/289/1 49/290/1 53/291/1 57/292/1 61/293/1 65/294/1 69/295/1 72/296/1 74/297/1 76/298/1 79/299/1 80/300/1 83/301/1 86/302/1 92/303/1 93/304/1 99/305/1 101/306/1 104/307/1 105/308/1 108/309/1 109/310/1 112/311/1 114/312/1 116/313/1 118/314/1 121/315/1 125/316/1 127/317/1 128/318/1 129/319/1 130/320/1 131/321/1 132/322/1 133/323/1 134/324/1 135/325/1 136/326/1 139/327/1 140/328/1 141/329/1 142/330/1 143/331/1 144/332/1 145/333/1 146/334/1 147/335/1 148/336/1 149/337/1 150/338/1 151/339/1 152/340/1 153/341/1 154/342/1 155/343/1 156/344/1 157/345/1 158/346/1 159/347/1 160/348/1 161/349/1 162/350/1 163/351/1 165/352/1 167/353/1 169/354/1 171/355/1 173/356/1 176/357/1 178/358/1 179/359/1 181/360/1 183/361/1 185/362/1 187/363/1
f 445/364/5 444/365/5 435/366/5 432/367/5 443/368/5 446/369/5 549/370/5 551/371/5 550/372/5 450/373/5 2/374/5 6/16/5 458/17/5 548/375/5 547/376/5 546/377/5
f 7/15/7 3/378/7 5/379/7 386/18/7
f 395/380/8 390/381/8 8/245/8 392/381/8 397/380/8 5/1/8
f 191/72/9 9/30/9 8/382/9 11/383/9 190/384/9 187/385/9 185/386/9 183/387/9 181/388/9 179/389/9 178/390/9 176/391/9 173/392/9 171/393/9 169/394/9 167/395/9 165/396/9 163/397/9 162/398/9 161/399/9 160/400/9 159/401/9 158/402/9 157/403/9 156/404/9 155/405/9 154/406/9 153/407/9 152/408/9 151/409/9 150/410/9 149/411/9 148/412/9 147/413/9 146/414/9 145/415/9 144/416/9 143/417/9 142/418/9 141/419/9 140/420/9 139/421/9 136/422/9 135/423/9 134/424/9 133/425/9 132/426/9 131/427/9 130/428/9 129/429/9 128/430/9 127/431/9 125/432/9 121/433/9 118/434/9 116/435/9 114/436/9 112/437/9 109/438/9 108/439/9 105/440/9 104/441/9 101/442/9 99/443/9 93/444/9 92/445/9 86/446/9 83/447/9 80/448/9 79/449/9 76/450/9 74/451/9 72/452/9 69/453/9 65/454/9 61/455/9 57/456/9 53/457/9 49/458/9 47/459/9 43/460/9 39/461/9 36/462/9 31/463/9 30/464/9 29/465/9 28/466/9 27/467/9 26/468/9 25/469/9 24/470/9 23/471/9 22/472/9 21/473/9 20/474/9 19/475/9 18/476/9 17/477/9 16/478/9 15/479/9 14/480/9 13/481/9 12/482/9 10/241/9 193/172/9 383/483/9 381/484/9 379/485/9 376/486/9 374/487/9 372/488/9 370/489/9 369/490/9 366/491/9 365/492/9 362/493/9 360/494/9 358/495/9 356/496/9 354/497/9 352/498/9 351/499/9 350/500/9 349/501/9 348/502/9 347/503/9 346/504/9 345/505/9 344/506/9 343/507/9 342/508/9 341/509/9 340/510/9 339/511/9 338/512/9 337/513/9 336/514/9 335/515/9 334/516/9 333/517/9 332/518/9 331/519/9 330/520/9 329/521/9 328/522/9 327/523/9 326/524/9 325/525/9 324/526/9 323/527/9 322/528/9 321/529/9 320/530/9 319/531/9 317/532/9 315/533/9 314/534/9 310/535/9 309/536/9 308/537/9 307/538/9 306/539/9 305/540/9 304/541/9 303/542/9 302/543/9 300/544/9 298/545/9 294/546/9 290/547/9 286/548/9 282/549/9 278/550/9 273/551/9 271/552/9 267/553/9 262/554/9 260/555/9 256/556/9 254/557/9 252/558/9 250/559/9 248/560/9 246/561/9 244/562/9 238/563/9 236/564/9 231/565/9 226/566/9 222/567/9 220/568/9 218/569/9 216/570/9 214/571/9 211/572/9 210/573/9 208/574/9 207/575/9 205/576/9 203/577/9 201/578/9 199/579/9 197/580/9 195/581/9
f 397/582/10 400/18/10 386/18/10 5/379/10
f 390/381/1 395/380/1 5/1/1 447/14/1 559/583/1 563/584/1 564/585/1 562/586/1 561/587/1 567/588/1 568/589/1 566/590/1 565/591/1 560/592/1 558/593/1 557/594/1 506/595/1 505/596/1 552/597/1 554/598/1 555/599/1 556/600/1 553/601/1 529/246/1 8/245/1
f 8/382/11 9/30/11 393/29/11 392/602/11
f 400/32/7 397/603/7 392/604/7 393/29/7
f 37/605/1 32/606/1 35/607/1
f 37/605/1 41/608/1 32/606/1
f 37/605/1 45/609/1 41/608/1
f 37/605/1 51/610/1 45/609/1
f 37/605/1 55/611/1 51/610/1
f 37/605/1 59/612/1 55/611/1
f 37/605/1 64/613/1 59/612/1
f 37/614/1 67/614/1 64/613/1
f 37/605/1 71/615/1 67/605/1
f 37/605/1 73/616/1 71/617/1
f 37/605/1 75/618/1 73/619/1
f 37/605/1 77/620/1 75/621/1
f 37/605/1 78/622/1 77/623/1
f 37/605/1 81/624/1 78/625/1
f 37/605/1 85/626/1 81/627/1
f 37/605/1 88/628/1 85/629/1
f 37/605/1 90/630/1 88/628/1
f 37/605/1 95/631/1 90/630/1
f 37/605/1 98/632/1 95/631/1
f 98/632/1 37/605/1 415/633/1 414/634/1
f 416/635/1 415/636/1 37/605/1
f 420/637/1 416/635/1 37/605/1
f 419/638/1 420/639/1 37/605/1
f 421/640/1 419/641/1 37/640/1
f 422/642/1 421/605/1 37/605/1
f 37/605/1 418/643/1 422/644/1
f 37/605/1 417/645/1 418/646/1
f 37/605/1 401/647/1 417/648/1
f 37/605/1 120/649/1 407/650/1 401/651/1
f 37/605/1 123/652/1 120/653/1
f 37/605/1 126/654/1 123/655/1
f 37/605/1 35/607/1 126/656/1
f 570/613/12 64/613/12 67/614/12 569/614/12
f 572/624/13 81/624/13 85/626/13 571/626/13 573/657/13
f 576/658/14 32/606/14 41/608/14 575/659/14 574/660/14
f 474/661/15 407/662/15 120/649/15 577/649/15
f 569/614/16 67/614/16 71/615/16 578/615/16 579/614/16
f 571/626/17 85/626/17 88/628/17 580/628/17 581/663/17
f 575/659/18 41/608/18 45/609/18 583/609/18 582/664/18
f 120/649/19 123/652/19 584/652/19 585/665/19 577/649/19
f 578/615/20 71/615/20 73/616/20 586/616/20 587/666/20
f 580/628/21 88/628/21 90/630/21 588/630/21 589/667/21
f 583/609/22 45/609/22 51/610/22 591/610/22 590/668/22
f 123/652/23 126/654/23 592/669/23 593/670/23 584/671/23
f 586/616/24 73/616/24 75/618/24 594/618/24 595/672/24
f 588/630/25 90/630/25 95/631/25 596/631/25 597/673/25
f 591/610/26 51/610/26 55/611/26 599/611/26 598/674/26
f 126/654/27 35/607/27 600/607/27 601/675/27 592/669/27
f 594/618/28 75/618/28 77/620/28 602/620/28 603/676/28
f 596/631/29 95/631/29 98/632/29 604/632/29 605/677/29
f 599/611/30 55/611/30 59/612/30 607/612/30 606/678/30
f 602/620/31 77/620/31 78/622/31 608/622/31 609/679/31
f 98/632/32 414/680/32 478/681/32 604/632/32
f 607/612/33 59/612/33 64/613/33 570/613/33 610/682/33
f 600/607/34 35/607/34 32/606/34 576/658/34 611/683/34
f 608/622/35 78/622/35 81/624/35 572/624/35 612/684/35
f 168/605/1 164/606/1 166/607/1
f 168/605/1 170/608/1 164/606/1
f 168/605/1 172/609/1 170/608/1
f 168/605/1 174/610/1 172/609/1
f 168/605/1 175/611/1 174/610/1
f 168/605/1 177/612/1 175/611/1
f 168/605/1 180/613/1 177/612/1
f 168/614/1 182/614/1 180/613/1
f 168/605/1 184/615/1 182/605/1
f 168/605/1 186/616/1 184/685/1
f 168/605/1 188/618/1 186/619/1
f 168/605/1 189/620/1 188/686/1
f 168/605/1 192/622/1 189/687/1
f 168/605/1 194/624/1 192/688/1
f 168/605/1 196/626/1 194/689/1
f 168/605/1 198/628/1 196/690/1
f 168/605/1 200/630/1 198/628/1
f 168/605/1 202/631/1 200/630/1
f 168/605/1 204/632/1 202/631/1
f 204/632/1 168/605/1 424/691/1 423/634/1
f 425/635/1 424/692/1 168/605/1
f 426/637/1 425/635/1 168/605/1
f 427/693/1 426/639/1 168/605/1
f 428/640/1 427/693/1 168/640/1
f 429/694/1 428/605/1 168/605/1
f 168/605/1 430/643/1 429/695/1
f 168/605/1 431/696/1 430/697/1
f 168/605/1 443/698/1 432/699/1 431/700/1
f 168/605/1 224/649/1 446/650/1 443/701/1
f 168/605/1 227/652/1 224/653/1
f 168/605/1 229/654/1 227/702/1
f 168/605/1 166/607/1 229/703/1
f 615/613/12 180/613/12 182/614/12 613/614/12 614/704/12
f 617/624/13 194/624/13 196/626/13 616/626/13 618/705/13
f 621/658/14 164/606/14 170/608/14 620/659/14 619/706/14
f 549/707/15 446/707/15 224/649/15 622/649/15
f 613/614/16 182/614/16 184/615/16 623/615/16 624/708/16
f 616/626/17 196/626/17 198/628/17 625/628/17 626/628/17 627/709/17
f 620/659/18 170/608/18 172/609/18 629/609/18 628/710/18
f 224/649/19 227/652/19 630/652/19 631/711/19 622/649/19
f 623/615/20 184/615/20 186/616/20 632/616/20 633/712/20
f 625/628/21 198/628/21 200/630/21 634/630/21 635/713/21
f 629/609/22 172/609/22 174/610/22 637/610/22 636/714/22
f 227/652/23 229/654/23 638/669/23 639/715/23 630/671/23
f 632/616/24 186/616/24 188/618/24 640/618/24 641/716/24
f 634/630/25 200/630/25 202/631/25 642/631/25 643/717/25
f 637/610/26 174/610/26 175/611/26 645/611/26 644/718/26
f 229/654/27 166/607/27 646/607/27 647/719/27 638/669/27
f 640/618/28 188/618/28 189/620/28 648/620/28
f 642/631/29 202/631/29 204/632/29 649/632/29 650/720/29
f 175/611/30 177/612/30 651/612/30 652/721/30 645/611/30
f 648/620/31 189/620/31 192/622/31 653/622/31 654/722/31
f 649/632/32 204/632/32 423/723/32 511/723/32
f 651/612/33 177/612/33 180/613/33 615/613/33 655/724/33
f 166/607/34 164/606/34 621/658/34 656/725/34 657/607/34 646/607/34
f 653/622/35 192/622/35 194/624/35 617/624/35 658/726/35
f 234/605/3 239/607/3 242/656/3
f 234/605/3 242/606/3 245/727/3
f 234/605/3 245/608/3 247/728/3
f 234/605/3 247/609/3 249/729/3
f 234/605/3 249/610/3 251/730/3
f 234/605/3 251/611/3 253/731/3
f 234/605/3 253/612/3 255/732/3
f 234/605/3 255/613/3 259/605/3
f 234/614/3 259/614/3 263/615/3
f 234/605/3 263/615/3 265/616/3
f 234/605/3 265/616/3 269/618/3
f 234/605/3 269/618/3 275/620/3
f 234/605/3 275/620/3 280/622/3
f 234/605/3 280/622/3 284/624/3
f 234/605/3 284/624/3 288/626/3
f 234/605/3 288/626/3 292/628/3
f 234/605/3 292/628/3 296/629/3
f 234/605/3 296/630/3 299/733/3
f 234/605/3 299/631/3 301/734/3
f 403/735/3 234/605/3 301/632/3 402/736/3
f 404/737/3 234/605/3 403/738/3
f 405/739/3 234/605/3 404/635/3
f 406/740/3 234/605/3 405/741/3
f 408/605/3 234/605/3 406/638/3
f 409/742/3 234/640/3 408/640/3
f 234/605/3 409/642/3 410/743/3
f 234/605/3 410/744/3 411/645/3
f 234/605/3 411/645/3 412/745/3
f 413/746/3 312/649/3 234/605/3 412/747/3
f 234/605/3 312/649/3 316/652/3
f 234/605/3 316/652/3 318/654/3
f 234/605/3 318/654/3 239/607/3
f 659/614/12 259/614/12 255/613/12 660/613/12
f 661/626/13 288/626/13 284/624/13 663/748/13 662/749/13
f 665/750/14 664/751/14 245/608/14 242/606/14 666/658/14
f 312/649/15 413/752/15 472/753/15 667/754/15
f 668/615/16 263/615/16 259/614/16 659/614/16 669/614/16
f 670/628/17 292/628/17 288/626/17 661/626/17 671/755/17
f 673/756/18 672/609/18 247/609/18 245/608/18 664/757/18
f 674/758/19 316/652/19 312/649/19 667/759/19 675/760/19
f 676/616/20 265/616/20 263/615/20 668/615/20 677/761/20
f 296/630/21 292/628/21 670/628/21 680/628/21 678/762/21 679/630/21
f 682/763/22 681/610/22 249/610/22 247/609/22 672/609/22
f 683/764/23 318/654/23 316/652/23 674/671/23 684/765/23
f 685/618/24 269/618/24 265/616/24 676/766/24 686/767/24
f 299/631/25 296/630/25 679/630/25 687/768/25 688/631/25
f 690/769/26 689/770/26 251/611/26 249/610/26 681/771/26
f 692/607/27 691/607/27 239/607/27 318/654/27 683/654/27 693/772/27
f 694/620/28 275/620/28 269/618/28 685/773/28 695/774/28
f 301/632/29 299/631/29 688/631/29 696/775/29 697/776/29
f 699/777/30 698/612/30 253/612/30 251/611/30 689/778/30
f 700/622/31 280/622/31 275/620/31 694/620/31 701/779/31
f 402/780/32 301/632/32 697/781/32 481/782/32
f 702/783/33 660/613/33 255/613/33 253/612/33 698/612/33
f 703/784/34 666/785/34 242/606/34 239/607/34 691/607/34
f 663/624/35 284/624/35 280/622/35 700/622/35 704/786/35
f 353/605/3 355/607/3 357/703/3
f 353/605/3 357/606/3 359/787/3
f 353/605/3 359/608/3 361/788/3
f 353/605/3 361/609/3 363/789/3
f 353/605/3 363/610/3 364/790/3
f 353/605/3 364/611/3 367/791/3
f 353/605/3 367/612/3 368/792/3
f 353/605/3 368/613/3 371/605/3
f 353/614/3 371/614/3 373/615/3
f 353/605/3 373/615/3 375/616/3
f 353/605/3 375/616/3 377/618/3
f 353/605/3 377/618/3 378/620/3
f 353/605/3 378/620/3 380/622/3
f 353/605/3 380/622/3 382/624/3
f 353/605/3 382/624/3 384/626/3
f 353/605/3 384/626/3 385/628/3
f 353/605/3 385/628/3 387/690/3
f 353/605/3 387/630/3 388/793/3
f 353/605/3 388/631/3 389/794/3
f 437/795/3 353/605/3 389/632/3 442/796/3
f 436/797/3 353/605/3 437/798/3
f 438/799/3 353/605/3 436/635/3
f 439/800/3 353/605/3 438/637/3
f 440/605/3 353/605/3 439/693/3
f 441/801/3 353/640/3 440/640/3
f 353/605/3 441/801/3 434/802/3
f 353/605/3 434/643/3 433/645/3
f 353/605/3 433/645/3 435/803/3 444/747/3
f 445/746/3 394/649/3 353/605/3 444/747/3
f 353/605/3 394/649/3 396/652/3
f 353/605/3 396/652/3 398/654/3
f 353/605/3 398/654/3 355/607/3
f 371/614/12 368/613/12 707/613/12 705/804/12 706/614/12
f 708/626/13 384/626/13 382/624/13 710/624/13 709/805/13
f 712/806/14 711/751/14 359/608/14 357/606/14 713/658/14
f 394/649/15 445/807/15 546/808/15 714/754/15
f 373/615/16 371/614/16 706/614/16 715/809/16 716/615/16
f 717/628/17 385/628/17 384/626/17 708/626/17 718/810/17
f 720/811/18 719/609/18 361/609/18 359/608/18 711/812/18
f 721/758/19 396/652/19 394/649/19 714/759/19 722/813/19
f 375/616/20 373/615/20 716/615/20 723/814/20 724/616/20
f 387/630/21 385/628/21 717/628/21 725/815/21 726/630/21
f 728/816/22 727/610/22 363/610/22 361/609/22 719/609/22
f 729/764/23 398/654/23 396/652/23 721/652/23 730/817/23
f 377/618/24 375/616/24 724/766/24 731/818/24 732/618/24
f 388/631/25 387/630/25 726/819/25 733/820/25 734/631/25
f 736/821/26 735/770/26 364/611/26 363/610/26 727/771/26
f 737/607/27 355/607/27 398/654/27 729/669/27 738/822/27
f 739/620/28 378/620/28 377/618/28 732/618/28
f 389/632/29 388/631/29 734/631/29 740/823/29 741/776/29
f 367/612/30 364/611/30 735/824/30 742/825/30 743/612/30
f 744/622/31 380/622/31 378/620/31 739/620/31 745/826/31
f 442/827/32 389/632/32 741/781/32 500/827/32
f 746/828/33 707/613/33 368/613/33 367/612/33 743/612/33
f 747/829/34 713/785/34 357/606/34 355/607/34 737/607/34
f 710/624/35 382/624/35 380/622/35 744/622/35 748/830/35
f 656/831/1 33/606/1 34/607/1 657/832/1
f 33/606/1 656/833/1 621/834/1 619/835/1 38/608/1
f 38/608/1 619/836/1 620/837/1 628/838/1 40/609/1
f 40/609/1 628/839/1 629/840/1 636/841/1 42/610/1
f 42/610/1 636/842/1 637/843/1 644/844/1 44/611/1
f 44/611/1 644/845/1 645/846/1 652/847/1 46/612/1
f 48/613/1 46/612/1 652/848/1 651/849/1 655/850/1
f 50/614/1 48/613/1 655/851/1 615/852/1 614/614/1
f 52/615/1 50/605/1 614/605/1 613/853/1 624/854/1
f 54/616/1 52/855/1 624/856/1 623/857/1 633/858/1
f 56/618/1 54/859/1 633/860/1 632/861/1 641/862/1
f 58/620/1 56/863/1 641/864/1 640/865/1 648/866/1 654/867/1
f 60/622/1 58/687/1 654/868/1 653/869/1 658/870/1
f 62/624/1 60/871/1 658/872/1 617/873/1 618/874/1
f 63/626/1 62/875/1 618/876/1 616/877/1 627/878/1
f 66/628/1 63/879/1 627/880/1 626/881/1
f 635/882/1 68/630/1 66/628/1 626/883/1 625/883/1
f 68/630/1 635/884/1 634/885/1 643/886/1 70/631/1
f 510/887/1 509/888/1 70/631/1 643/889/1 642/890/1 650/891/1
f 511/892/1 510/887/1 650/893/1 649/894/1
f 551/895/1 549/896/1 622/897/1 631/898/1
f 639/899/1 82/652/1 550/900/1 551/901/1 631/902/1 630/903/1
f 647/904/1 84/654/1 82/905/1 639/906/1 638/907/1
f 657/908/1 34/607/1 84/909/1 647/910/1 646/908/1
f 42/610/36 44/611/36 449/611/36 452/610/36
f 84/654/37 34/607/37 455/607/37 453/654/37
f 56/618/38 58/620/38 567/620/38 561/618/38
f 506/911/39 557/631/39 70/631/39 509/912/39
f 44/611/40 46/612/40 448/612/40 449/611/40
f 58/620/41 60/622/41 568/622/41 567/620/41
f 447/913/42 448/612/42 46/612/42 48/613/42 559/914/42
f 34/607/43 33/606/43 457/915/43 455/607/43
f 60/622/44 62/624/44 566/748/44 568/622/44
f 48/613/45 50/614/45 563/614/45 559/613/45
f 62/624/46 63/626/46 565/916/46 566/624/46
f 33/606/47 38/608/47 456/608/47 457/606/47
f 50/614/48 52/615/48 564/615/48 563/614/48
f 63/626/49 66/628/49 560/628/49 565/626/49
f 456/608/50 38/608/50 40/609/50 454/917/50
f 550/918/51 82/652/51 451/652/51 450/919/51
f 52/615/52 54/616/52 562/616/52 564/615/52
f 66/628/53 68/630/53 558/920/53 560/628/53
f 40/609/54 42/610/54 452/610/54 454/609/54
f 82/652/55 84/654/55 453/654/55 451/671/55
f 54/616/56 56/618/56 561/618/56 562/616/56
f 68/630/57 70/631/57 557/631/57 558/630/57
f 737/921/3 87/607/3 89/909/3 747/922/3
f 713/923/3 747/924/3 89/606/3 91/925/3 712/926/3
f 711/927/3 712/928/3 91/608/3 94/929/3 720/930/3
f 719/931/3 720/932/3 94/609/3 96/933/3 728/934/3
f 728/935/3 96/610/3 97/936/3 736/937/3 727/938/3
f 736/939/3 97/611/3 100/940/3 742/941/3 735/942/3
f 742/943/3 100/612/3 102/944/3 746/945/3 743/946/3
f 746/947/3 102/613/3 103/605/3 705/605/3 707/948/3
f 705/614/3 103/614/3 106/615/3 715/949/3 706/950/3
f 715/854/3 106/615/3 107/616/3 723/951/3 716/952/3
f 107/616/3 110/618/3 731/953/3 724/954/3 723/955/3
f 110/618/3 111/620/3 745/956/3 739/957/3 732/958/3 731/959/3
f 745/956/3 111/620/3 113/622/3 748/960/3 744/961/3
f 113/622/3 115/624/3 709/962/3 710/963/3 748/964/3
f 709/965/3 115/624/3 117/626/3 718/966/3 708/967/3
f 718/968/3 117/626/3 119/628/3 717/969/3
f 717/970/3 119/628/3 122/971/3 725/972/3
f 725/973/3 122/630/3 124/974/3 733/975/3 726/976/3
f 733/977/3 124/631/3 502/978/3 501/979/3 740/980/3 734/981/3
f 741/982/3 740/983/3 501/984/3 500/985/3
f 546/986/3 547/987/3 722/988/3 714/989/3
f 722/990/3 547/991/3 548/992/3 137/652/3 730/993/3 721/994/3
f 730/995/3 137/652/3 138/654/3 738/996/3 729/997/3
f 738/998/3 138/654/3 87/607/3 737/999/3
f 463/611/36 97/611/36 96/610/36 465/610/36
f 467/607/37 87/607/37 138/654/37 462/1000/37
f 522/620/38 111/620/38 110/618/38 521/618/38
f 504/1001/39 502/1001/39 124/631/39 523/1002/39
f 460/612/40 100/612/40 97/611/40 463/1003/40
f 525/622/41 113/622/41 111/620/41 522/1004/41
f 512/613/42 102/613/42 100/612/42 460/612/42 459/1005/42
f 468/606/43 89/606/43 87/607/43 467/607/43
f 526/624/44 115/624/44 113/622/44 525/622/44
f 514/614/45 103/614/45 102/613/45 512/613/45
f 117/626/46 115/624/46 526/1006/46 528/626/46
f 466/608/47 91/608/47 89/606/47 468/606/47
f 513/615/48 106/615/48 103/614/48 514/614/48
f 527/628/49 119/628/49 117/626/49 528/1007/49
f 464/609/50 94/609/50 91/608/50 466/608/50
f 458/1008/51 461/652/51 137/652/51 548/1009/51
f 515/616/52 107/616/52 106/615/52 513/615/52
f 524/630/53 122/630/53 119/628/53 527/628/53
f 465/610/54 96/610/54 94/609/54 464/609/54
f 462/654/55 138/654/55 137/652/55 461/1010/55
f 521/618/56 110/618/56 107/616/56 515/616/56
f 523/631/57 124/631/57 122/630/57 524/1011/57
f 611/1012/1 206/606/1 209/607/1 600/1013/1
f 206/606/1 611/1014/1 576/1015/1 574/1016/1 212/608/1
f 212/608/1 574/1017/1 575/1018/1 582/1019/1 213/609/1
f 213/609/1 582/1020/1 583/1021/1 590/1022/1 215/610/1
f 215/610/1 590/1023/1 591/1024/1 598/1025/1 217/611/1
f 219/612/1 217/611/1 598/1026/1 599/1027/1 606/1028/1
f 221/613/1 219/612/1 606/1029/1 607/1030/1 610/1031/1
f 569/1032/1 579/614/1 223/614/1 221/613/1 610/1033/1 570/1034/1
f 225/615/1 223/605/1 579/605/1 578/1035/1 587/1036/1
f 228/616/1 225/1037/1 587/1038/1 586/1039/1 595/1040/1
f 230/618/1 228/859/1 595/1041/1 594/1042/1 603/1043/1
f 232/620/1 230/1044/1 603/1045/1 602/1046/1 609/1047/1
f 233/622/1 232/1048/1 609/1049/1 608/1050/1 612/1051/1
f 235/624/1 233/1052/1 612/1053/1 572/1054/1 573/1055/1
f 237/626/1 235/1056/1 573/1057/1 571/1058/1 581/1059/1
f 240/628/1 237/971/1 581/1060/1 580/1061/1
f 589/1062/1 241/630/1 240/628/1 580/1063/1
f 241/630/1 589/1064/1 588/1065/1 597/1066/1 243/631/1
f 476/887/1 477/1067/1 243/631/1 597/1068/1 596/1069/1 605/1070/1
f 478/1071/1 476/887/1 605/1072/1 604/1073/1
f 469/895/1 474/1074/1 577/1075/1 585/1076/1
f 257/652/1 507/1077/1 471/1078/1 469/1079/1 585/1080/1 584/1081/1 593/1082/1
f 601/1083/1 258/654/1 257/905/1 593/1084/1 592/1085/1
f 209/607/1 258/1086/1 601/1087/1 600/1088/1
f 215/610/36 217/611/36 533/778/36 532/610/36
f 258/654/37 209/607/37 555/607/37 554/654/37
f 230/618/38 232/620/38 540/620/38 542/618/38
f 475/1089/39 530/631/39 243/631/39 477/1090/39
f 217/611/40 219/612/40 534/612/40 533/611/40
f 232/620/41 233/622/41 539/622/41 540/620/41
f 219/612/42 221/613/42 541/613/42 534/612/42
f 209/607/43 206/606/43 556/915/43 555/607/43
f 233/622/44 235/624/44 538/1091/44 539/622/44
f 221/613/45 223/614/45 544/614/45 541/613/45
f 235/624/46 237/626/46 537/626/46 538/624/46
f 206/606/47 212/608/47 553/608/47 556/606/47
f 223/614/48 225/615/48 545/1092/48 544/614/48
f 237/626/49 240/628/49 536/628/49 537/626/49
f 553/757/50 212/608/50 213/609/50 531/609/50 529/1093/50
f 507/1094/51 257/652/51 552/758/51 505/1094/51
f 225/615/52 228/616/52 543/616/52 545/615/52
f 240/628/53 241/630/53 535/920/53 536/628/53
f 213/609/54 215/610/54 532/610/54 531/609/54
f 257/652/55 258/654/55 554/1000/55 552/671/55
f 228/616/56 230/618/56 542/773/56 543/616/56
f 241/630/57 243/631/57 530/1002/57 535/630/57
f 691/1095/3 692/1095/3 261/607/3 264/909/3 703/1096/3
f 666/1097/3 703/1012/3 264/606/3 266/1098/3 665/1099/3
f 664/1100/3 665/1101/3 266/608/3 268/1102/3 673/1103/3
f 672/1104/3 673/1105/3 268/609/3 270/1106/3 682/1107/3
f 682/1022/3 270/610/3 272/1108/3 690/1109/3 681/1110/3
f 690/1111/3 272/611/3 274/1112/3 699/1113/3 689/1114/3
f 699/1115/3 274/612/3 276/1116/3 702/1117/3 698/1118/3
f 702/1119/3 276/613/3 277/605/3 669/605/3 659/1032/3 660/1120/3
f 669/614/3 277/614/3 279/615/3 677/1121/3 668/1122/3
f 677/1036/3 279/615/3 281/616/3 686/1123/3 676/1124/3
f 686/1125/3 281/616/3 283/618/3 695/1126/3 685/1127/3
f 695/1128/3 283/618/3 285/620/3 701/1047/3 694/1046/3
f 285/620/3 287/622/3 704/1129/3 700/1130/3 701/1047/3
f 287/622/3 289/624/3 662/1131/3 663/1132/3 704/1133/3
f 662/1134/3 289/624/3 291/626/3 671/1135/3 661/1136/3
f 671/1137/3 291/626/3 293/628/3 680/1138/3 670/1138/3
f 680/1061/3 293/628/3 295/1139/3 678/1060/3
f 678/1140/3 295/630/3 297/1141/3 687/1142/3 679/1143/3
f 687/1144/3 297/631/3 479/1145/3 480/1146/3 696/1147/3 688/1148/3
f 696/1149/3 480/984/3 481/1150/3 697/1151/3
f 472/1152/3 473/987/3 675/1153/3 667/1154/3
f 473/1155/3 470/1156/3 508/1157/3 311/652/3 684/1158/3 674/1159/3 675/1160/3
f 684/1161/3 311/652/3 313/654/3 693/1162/3 683/1163/3
f 693/1083/3 313/654/3 261/607/3 692/1164/3
f 487/611/36 272/611/36 270/610/36 486/610/36
f 516/607/37 261/607/37 313/654/37 517/1000/37
f 498/620/38 285/620/38 283/618/38 499/618/38
f 479/1165/39 297/631/39 492/631/39 482/1166/39
f 488/612/40 274/612/40 272/611/40 487/611/40
f 497/622/41 287/622/41 285/620/41 498/1004/41
f 489/613/42 276/613/42 274/612/42 488/612/42
f 518/606/43 264/606/43 261/607/43 516/607/43
f 496/624/44 289/624/44 287/622/44 497/1167/44
f 277/614/45 276/613/45 489/613/45 483/614/45
f 291/626/46 289/624/46 496/624/46 495/626/46
f 520/608/47 266/608/47 264/606/47 518/658/47
f 491/615/48 279/615/48 277/614/48 483/614/48
f 494/628/49 293/628/49 291/626/49 495/1007/49
f 485/609/50 268/609/50 266/608/50 520/608/50 484/1168/50
f 503/1169/51 519/652/51 311/652/51 508/1170/51
f 490/616/52 281/616/52 279/615/52 491/615/52
f 295/630/53 293/628/53 494/628/53 493/630/53
f 486/610/54 270/610/54 268/609/54 485/609/54
f 517/654/55 313/654/55 311/652/55 519/652/55
f 499/618/56 283/618/56 281/616/56 490/616/56
f 492/631/57 297/631/57 295/630/57 493/1011/57
o Kola
v -0.649526 -0.100000 1.200000
v -0.649526 -0.100000 0.959074
v -0.649526 -0.057742 0.963704
v -0.649526 -0.017109 0.977414
v -0.649526 0.020340 0.999678
v -0.649526 0.053163 1.029640
v -0.649526 0.080101 1.066149
v -0.649526 0.100118 1.107802
v -0.649526 0.112444 1.152998
v -0.649526 0.116606 1.200000
v -0.649526 0.112444 1.247002
v -0.649526 0.100118 1.292198
v -0.649526 0.080101 1.333851
v -0.649526 0.053163 1.370360
v -0.649526 0.020340 1.400322
v -0.649526 -0.017109 1.422586
v -0.649526 -0.057742 1.436296
v -0.649526 -0.100000 1.440926
v -0.649526 -0.142258 1.436296
v -0.649526 -0.182891 1.422586
v -0.649526 -0.220340 1.400322
v -0.649526 -0.253163 1.370360
v -0.649526 -0.280101 1.333851
v -0.649526 -0.300118 1.292198
v -0.649526 -0.312444 1.247002
v -0.649526 -0.316606 1.200000
v -0.649526 -0.312444 1.152998
v -0.649526 -0.300118 1.107802
v -0.649526 -0.280101 1.066149
v -0.649526 -0.253163 1.029640
v -0.649526 -0.220340 0.999678
v -0.649526 -0.182891 0.977414
v -0.649526 -0.142258 0.963704
v -0.441464 -0.057742 0.963704
v -0.441464 -0.100000 0.959074
v -0.441464 -0.100000 1.200000
v -0.441464 -0.017109 0.977414
v -0.441464 0.020340 0.999678
v -0.441464 0.053163 1.029640
v -0.441464 0.080101 1.066149
v -0.441464 0.100118 1.107802
v -0.441464 0.112444 1.152998
v -0.441464 0.116606 1.200000
v -0.441464 0.112444 1.247002
v -0.441464 0.100118 1.292198
v -0.441464 0.080101 1.333851
v -0.441464 0.053163 1.370360
v -0.441464 0.020340 1.400322
v -0.441464 -0.017109 1.422586
v -0.441464 -0.057742 1.436296
v -0.441464 -0.100000 1.440926
v -0.441464 -0.142258 1.436296
v -0.441464 -0.182891 1.422586
v -0.441464 -0.220340 1.400322
v -0.441464 -0.253163 1.370360
v -0.441464 -0.280101 1.333851
v -0.441464 -0.300117 1.292198
v -0.441464 -0.312444 1.247002
v -0.441464 -0.316606 1.200000
v -0.441464 -0.312444 1.152998
v -0.441464 -0.300117 1.107802
v -0.441464 -0.280101 1.066149
v -0.441464 -0.253163 1.029640
v -0.441464 -0.220340 0.999678
v -0.441464 -0.182891 0.977414
v -0.441464 -0.142258 0.963704
v -0.649526 -0.100000 -1.167822
v -0.649526 -0.100000 -1.408748
v -0.649526 -0.057742 -1.404119
v -0.649526 -0.017109 -1.390409
v -0.649526 0.020340 -1.368145
v -0.649526 0.053163 -1.338182
v -0.649526 0.080101 -1.301673
v -0.649526 0.100118 -1.260021
v -0.649526 0.112444 -1.214824
v -0.649526 0.116606 -1.167822
v -0.649526 0.112444 -1.120820
v -0.649526 0.100118 -1.075624
v -0.649526 0.080101 -1.033971
v -0.649526 0.053163 -0.997462
v -0.649526 0.020340 -0.967500
v -0.649526 -0.017109 -0.945236
v -0.649526 -0.057742 -0.931526
v -0.649526 -0.100000 -0.926897
v -0.649526 -0.142258 -0.931526
v -0.649526 -0.182891 -0.945236
v -0.649526 -0.220340 -0.967500
v -0.649526 -0.253163 -0.997462
v -0.649526 -0.280101 -1.033971
v -0.649526 -0.300118 -1.075624
v -0.649526 -0.312444 -1.120820
v -0.649526 -0.316606 -1.167822
v -0.649526 -0.312444 -1.214824
v -0.649526 -0.300118 -1.260021
v -0.649526 -0.280101 -1.301673
v -0.649526 -0.253163 -1.338182
v -0.649526 -0.220340 -1.368145
v -0.649526 -0.182891 -1.390409
v -0.649526 -0.142258 -1.404119
v -0.441464 -0.057742 -1.404119
v -0.441464 -0.100000 -1.408748
v -0.441464 -0.100000 -1.167822
v -0.441464 -0.017109 -1.390409
v -0.441464 0.020340 -1.368145
v -0.441464 0.053163 -1.338182
v -0.441464 0.080101 -1.301673
v -0.441464 0.100118 -1.260021
v -0.441464 0.112444 -1.214824
v -0.441464 0.116606 -1.167822
v -0.441464 0.112444 -1.120820
v -0.441464 0.100118 -1.075624
v -0.441464 0.080101 -1.033971
v -0.441464 0.053163 -0.997462
v -0.441464 0.020340 -0.967500
v -0.441464 -0.017109 -0.945236
v -0.441464 -0.057742 -0.931526
v -0.441464 -0.100000 -0.926897
v -0.441464 -0.142258 -0.931526
v -0.441464 -0.182891 -0.945236
v -0.441464 -0.220340 -0.967500
v -0.441464 -0.253163 -0.997462
v -0.441464 -0.280101 -1.033971
v -0.441464 -0.300117 -1.075624
v -0.441464 -0.312444 -1.120820
v -0.441464 -0.316606 -1.167822
v -0.441464 -0.312444 -1.214824
v -0.441464 -0.300117 -1.260021
v -0.441464 -0.280101 -1.301673
v -0.441464 -0.253163 -1.338182
v -0.441464 -0.220340 -1.368145
v -0.441464 -0.182891 -1.390409
v -0.441464 -0.142258 -1.404119
v 0.434780 -0.100000 1.200000
v 0.434780 -0.100000 0.959074
v 0.434780 -0.057742 0.963704
v 0.434780 -0.017109 0.977414
v 0.434780 0.020340 0.999678
v 0.434780 0.053163 1.029640
v 0.434780 0.080101 1.066149
v 0.434780 0.100118 1.107802
v 0.434780 0.112444 1.152998
v 0.434780 0.116606 1.200000
v 0.434780 0.112444 1.247002
v 0.434780 0.100118 1.292198
v 0.434780 0.080101 1.333851
v 0.434780 0.053163 1.370360
v 0.434780 0.020340 1.400322
v 0.434780 -0.017109 1.422586
v 0.434780 -0.057742 1.436296
v 0.434780 -0.100000 1.440926
v 0.434780 -0.142258 1.436296
v 0.434780 -0.182891 1.422586
v 0.434780 -0.220340 1.400322
v 0.434780 -0.253163 1.370360
v 0.434780 -0.280101 1.333851
v 0.434780 -0.300117 1.292198
v 0.434780 -0.312444 1.247002
v 0.434780 -0.316606 1.200000
v 0.434780 -0.312444 1.152998
v 0.434780 -0.300117 1.107802
v 0.434780 -0.280101 1.066149
v 0.434780 -0.253163 1.029640
v 0.434780 -0.220340 0.999678
v 0.434780 -0.182891 0.977414
v 0.434780 -0.142258 0.963704
v 0.642841 -0.057742 0.963704
v 0.642841 -0.100000 0.959074
v 0.642841 -0.100000 1.200000
v 0.642841 -0.017109 0.977414
v 0.642841 0.020340 0.999678
v 0.642841 0.053163 1.029640
v 0.642841 0.080101 1.066149
v 0.642841 0.100118 1.107802
v 0.642841 0.112444 1.152998
v 0.642841 0.116606 1.200000
v 0.642841 0.112444 1.247002
v 0.642841 0.100118 1.292198
v 0.642841 0.080101 1.333851
v 0.642841 0.053163 1.370360
v 0.642841 0.020340 1.400322
v 0.642841 -0.017109 1.422586
v 0.642841 -0.057742 1.436296
v 0.642841 -0.100000 1.440926
v 0.642841 -0.142258 1.436296
v 0.642841 -0.182891 1.422586
v 0.642841 -0.220340 1.400322
v 0.642841 -0.253163 1.370360
v 0.642841 -0.280101 1.333851
v 0.642841 -0.300117 1.292198
v 0.642841 -0.312444 1.247002
v 0.642841 -0.316606 1.200000
v 0.642841 -0.312444 1.152998
v 0.642841 -0.300117 1.107802
v 0.642841 -0.280101 1.066149
v 0.642841 -0.253163 1.029640
v 0.642841 -0.220340 0.999678
v 0.642841 -0.182891 0.977414
v 0.642841 -0.142258 0.963704
v 0.434780 -0.100000 -1.167822
v 0.434780 -0.100000 -1.408748
v 0.434780 -0.057742 -1.404118
v 0.434780 -0.017109 -1.390408
v 0.434780 0.020340 -1.368144
v 0.434780 0.053163 -1.338182
v 0.434780 0.080101 -1.301673
v 0.434780 0.100117 -1.260020
v 0.434780 0.112444 -1.214824
v 0.434780 0.116606 -1.167822
v 0.434780 0.112444 -1.120820
v 0.434780 0.100117 -1.075624
v 0.434780 0.080101 -1.033971
v 0.434780 0.053163 -0.997462
v 0.434780 0.020340 -0.967500
v 0.434780 -0.017109 -0.945236
v 0.434780 -0.057742 -0.931526
v 0.434780 -0.100000 -0.926896
v 0.434780 -0.142258 -0.931526
v 0.434780 -0.182891 -0.945236
v 0.434780 -0.220340 -0.967500
v 0.434780 -0.253163 -0.997462
v 0.434780 -0.280101 -1.033971
v 0.434780 -0.300117 -1.075624
v 0.434780 -0.312444 -1.120820
v 0.434780 -0.316606 -1.167822
v 0.434780 -0.312444 -1.214824
v 0.434780 -0.300117 -1.260020
v 0.434780 -0.280101 -1.301673
v 0.434780 -0.253163 -1.338182
v 0.434780 -0.220340 -1.368144
v 0.434780 -0.182891 -1.390408
v 0.434780 -0.142258 -1.404118
v 0.642841 -0.057742 -1.404118
v 0.642841 -0.100000 -1.408748
v 0.642841 -0.100000 -1.167822
v 0.642841 -0.017109 -1.390408
v 0.642841 0.020340 -1.368144
v 0.642841 0.053163 -1.338182
v 0.642841 0.080101 -1.301673
v 0.642841 0.100118 -1.260020
v 0.642841 0.112444 -1.214824
v 0.642841 0.116606 -1.167822
v 0.642841 0.112444 -1.120820
v 0.642841 0.100118 -1.075624
v 0.642841 0.080101 -1.033971
v 0.642841 0.053163 -0.997462
v 0.642841 0.020340 -0.967500
v 0.642841 -0.017109 -0.945236
v 0.642841 -0.057742 -0.931526
v 0.642841 -0.100000 -0.926896
v 0.642841 -0.142258 -0.931526
v 0.642841 -0.182891 -0.945236
v 0.642841 -0.220340 -0.967500
v 0.642841 -0.253163 -0.997462
v 0.642841 -0.280101 -1.033971
v 0.642841 -0.300117 -1.075624
v 0.642841 -0.312444 -1.120820
v 0.642841 -0.316606 -1.167822
v 0.642841 -0.312444 -1.214824
v 0.642841 -0.300117 -1.260020
v 0.642841 -0.280101 -1.301673
v 0.642841 -0.253163 -1.338182
v 0.642841 -0.220340 -1.368144
v 0.642841 -0.182891 -1.390408
v 0.642841 -0.142258 -1.404118
vn -1.0000 -0.0000 -0.0000
vn 1.0000 -0.0000 -0.0000
vn -0.0000 -0.8047 -0.5937
vn -0.0000 0.9961 -0.0882
vn -0.0000 0.3197 0.9475
vn -0.0000 -0.9013 0.4331
vn -0.0000 0.3197 -0.9475
vn -0.0000 -0.6742 -0.7386
vn -0.0000 0.9961 0.0882
vn -0.0000 0.1089 0.9941
vn -0.0000 -0.9648 0.2631
vn -0.0000 0.5110 -0.8596
vn -0.0000 -0.5110 -0.8596
vn -0.0000 0.9648 0.2631
vn -0.0000 -0.1089 0.9941
vn -0.0000 -0.9961 0.0882
vn -0.0000 0.6742 -0.7386
vn -0.0000 -0.3197 -0.9475
vn -0.0000 0.9013 0.4331
vn -0.0000 -0.3197 0.9475
vn -0.0000 -0.9961 -0.0882
vn -0.0000 0.8047 -0.5937
vn -0.0000 -0.1089 -0.9941
vn -0.0000 0.8047 0.5937
vn -0.0000 -0.5110 0.8596
vn -0.0000 -0.9648 -0.2631
vn -0.0000 0.9013 -0.4331
vn -0.0000 0.6742 0.7386
vn -0.0000 -0.6742 0.7386
vn -0.0000 -0.9013 -0.4331
vn -0.0000 0.9648 -0.2631
vn -0.0000 0.1089 -0.9941
vn -0.0000 0.5110 0.8596
vn -0.0000 -0.8047 0.5937
vt 0.500000 0.500000
vt 0.402455 0.990393
vt 0.500000 1.000000
vt 0.308658 0.961940
vt 0.222215 0.915735
vt 0.146447 0.853553
vt 0.084265 0.777785
vt 0.038060 0.691342
vt 0.009607 0.597545
vt 0.000000 0.500000
vt 0.009607 0.402455
vt 0.038060 0.308658
vt 0.084265 0.222215
vt 0.146447 0.146447
vt 0.222215 0.084265
vt 0.308658 0.038060
vt 0.402455 0.009607
vt 0.500000 0.000000
vt 0.597545 0.009607
vt 0.691342 0.038060
vt 0.777785 0.084265
vt 0.853553 0.146447
vt 0.915735 0.222215
vt 0.961940 0.308658
vt 0.990393 0.402455
vt 1.000000 0.500000
vt 0.990393 0.597545
vt 0.961940 0.691342
vt 0.915735 0.777785
vt 0.853553 0.853553
vt 0.777785 0.915735
vt 0.691342 0.961940
vt 0.597545 0.990393
s 0
f 749/1171/58 751/1172/58 750/1173/58
f 749/1171/58 752/1174/58 751/1172/58
f 749/1171/58 753/1175/58 752/1174/58
f 749/1171/58 754/1176/58 753/1175/58
f 749/1171/58 755/1177/58 754/1176/58
f 749/1171/58 756/1178/58 755/1177/58
f 749/1171/58 757/1179/58 756/1178/58
f 749/1171/58 758/1180/58 757/1179/58
f 749/1171/58 759/1181/58 758/1180/58
f 749/1171/58 760/1182/58 759/1181/58
f 749/1171/58 761/1183/58 760/1182/58
f 749/1171/58 762/1184/58 761/1183/58
f 749/1171/58 763/1185/58 762/1184/58
f 749/1171/58 764/1186/58 763/1185/58
f 749/1171/58 765/1187/58 764/1186/58
f 749/1171/58 766/1188/58 765/1187/58
f 749/1171/58 767/1189/58 766/1188/58
f 749/1171/58 768/1190/58 767/1189/58
f 749/1171/58 769/1191/58 768/1190/58
f 749/1171/58 770/1192/58 769/1191/58
f 749/1171/58 771/1193/58 770/1192/58
f 749/1171/58 772/1194/58 771/1193/58
f 749/1171/58 773/1195/58 772/1194/58
f 749/1171/58 774/1196/58 773/1195/58
f 749/1171/58 775/1197/58 774/1196/58
f 749/1171/58 776/1198/58 775/1197/58
f 749/1171/58 777/1199/58 776/1198/58
f 749/1171/58 778/1200/58 777/1199/58
f 749/1171/58 779/1201/58 778/1200/58
f 749/1171/58 780/1202/58 779/1201/58
f 749/1171/58 781/1203/58 780/1202/58
f 749/1171/58 750/1173/58 781/1203/58
f 784/1171/59 783/1173/59 782/1172/59
f 784/1171/59 782/1172/59 785/1174/59
f 784/1171/59 785/1174/59 786/1175/59
f 784/1171/59 786/1175/59 787/1176/59
f 784/1171/59 787/1176/59 788/1177/59
f 784/1171/59 788/1177/59 789/1178/59
f 784/1171/59 789/1178/59 790/1179/59
f 784/1171/59 790/1179/59 791/1180/59
f 784/1171/59 791/1180/59 792/1181/59
f 784/1171/59 792/1181/59 793/1182/59
f 784/1171/59 793/1182/59 794/1183/59
f 784/1171/59 794/1183/59 795/1184/59
f 784/1171/59 795/1184/59 796/1185/59
f 784/1171/59 796/1185/59 797/1186/59
f 784/1171/59 797/1186/59 798/1187/59
f 784/1171/59 798/1187/59 799/1188/59
f 784/1171/59 799/1188/59 800/1189/59
f 784/1171/59 800/1189/59 801/1190/59
f 784/1171/59 801/1190/59 802/1191/59
f 784/1171/59 802/1191/59 803/1192/59
f 784/1171/59 803/1192/59 804/1193/59
f 784/1171/59 804/1193/59 805/1194/59
f 784/1171/59 805/1194/59 806/1195/59
f 784/1171/59 806/1195/59 807/1196/59
f 784/1171/59 807/1196/59 808/1197/59
f 784/1171/59 808/1197/59 809/1198/59
f 784/1171/59 809/1198/59 810/1199/59
f 784/1171/59 810/1199/59 811/1200/59
f 784/1171/59 811/1200/59 812/1201/59
f 784/1171/59 812/1201/59 813/1202/59
f 784/1171/59 813/1202/59 814/1203/59
f 784/1171/59 814/1203/59 783/1173/59
f 777/1199/60 778/1200/60 811/1200/60 810/1199/60
f 757/1179/61 758/1180/61 791/1180/61 790/1179/61
f 764/1186/62 765/1187/62 798/1187/62 797/1186/62
f 771/1193/63 772/1194/63 805/1194/63 804/1193/63
f 751/1172/64 752/1174/64 785/1174/64 782/1172/64
f 778/1200/65 779/1201/65 812/1201/65 811/1200/65
f 758/1180/66 759/1181/66 792/1181/66 791/1180/66
f 765/1187/67 766/1188/67 799/1188/67 798/1187/67
f 772/1194/68 773/1195/68 806/1195/68 805/1194/68
f 752/1174/69 753/1175/69 786/1175/69 785/1174/69
f 779/1201/70 780/1202/70 813/1202/70 812/1201/70
f 759/1181/71 760/1182/71 793/1182/71 792/1181/71
f 766/1188/72 767/1189/72 800/1189/72 799/1188/72
f 773/1195/73 774/1196/73 807/1196/73 806/1195/73
f 753/1175/74 754/1176/74 787/1176/74 786/1175/74
f 780/1202/75 781/1203/75 814/1203/75 813/1202/75
f 760/1182/76 761/1183/76 794/1183/76 793/1182/76
f 767/1189/77 768/1190/77 801/1190/77 800/1189/77
f 774/1196/78 775/1197/78 808/1197/78 807/1196/78
f 754/1176/79 755/1177/79 788/1177/79 787/1176/79
f 781/1203/80 750/1173/80 783/1173/80 814/1203/80
f 761/1183/81 762/1184/81 795/1184/81 794/1183/81
f 768/1190/82 769/1191/82 802/1191/82 801/1190/82
f 775/1197/83 776/1198/83 809/1198/83 808/1197/83
f 755/1177/84 756/1178/84 789/1178/84 788/1177/84
f 762/1184/85 763/1185/85 796/1185/85 795/1184/85
f 769/1191/86 770/1192/86 803/1192/86 802/1191/86
f 776/1198/87 777/1199/87 810/1199/87 809/1198/87
f 756/1178/88 757/1179/88 790/1179/88 789/1178/88
f 750/1173/89 751/1172/89 782/1172/89 783/1173/89
f 763/1185/90 764/1186/90 797/1186/90 796/1185/90
f 770/1192/91 771/1193/91 804/1193/91 803/1192/91
f 815/1171/58 817/1172/58 816/1173/58
f 815/1171/58 818/1174/58 817/1172/58
f 815/1171/58 819/1175/58 818/1174/58
f 815/1171/58 820/1176/58 819/1175/58
f 815/1171/58 821/1177/58 820/1176/58
f 815/1171/58 822/1178/58 821/1177/58
f 815/1171/58 823/1179/58 822/1178/58
f 815/1171/58 824/1180/58 823/1179/58
f 815/1171/58 825/1181/58 824/1180/58
f 815/1171/58 826/1182/58 825/1181/58
f 815/1171/58 827/1183/58 826/1182/58
f 815/1171/58 828/1184/58 827/1183/58
f 815/1171/58 829/1185/58 828/1184/58
f 815/1171/58 830/1186/58 829/1185/58
f 815/1171/58 831/1187/58 830/1186/58
f 815/1171/58 832/1188/58 831/1187/58
f 815/1171/58 833/1189/58 832/1188/58
f 815/1171/58 834/1190/58 833/1189/58
f 815/1171/58 835/1191/58 834/1190/58
f 815/1171/58 836/1192/58 835/1191/58
f 815/1171/58 837/1193/58 836/1192/58
f 815/1171/58 838/1194/58 837/1193/58
f 815/1171/58 839/1195/58 838/1194/58
f 815/1171/58 840/1196/58 839/1195/58
f 815/1171/58 841/1197/58 840/1196/58
f 815/1171/58 842/1198/58 841/1197/58
f 815/1171/58 843/1199/58 842/1198/58
f 815/1171/58 844/1200/58 843/1199/58
f 815/1171/58 845/1201/58 844/1200/58
f 815/1171/58 846/1202/58 845/1201/58
f 815/1171/58 847/1203/58 846/1202/58
f 815/1171/58 816/1173/58 847/1203/58
f 850/1171/59 849/1173/59 848/1172/59
f 850/1171/59 848/1172/59 851/1174/59
f 850/1171/59 851/1174/59 852/1175/59
f 850/1171/59 852/1175/59 853/1176/59
f 850/1171/59 853/1176/59 854/1177/59
f 850/1171/59 854/1177/59 855/1178/59
f 850/1171/59 855/1178/59 856/1179/59
f 850/1171/59 856/1179/59 857/1180/59
f 850/1171/59 857/1180/59 858/1181/59
f 850/1171/59 858/1181/59 859/1182/59
f 850/1171/59 859/1182/59 860/1183/59
f 850/1171/59 860/1183/59 861/1184/59
f 850/1171/59 861/1184/59 862/1185/59
f 850/1171/59 862/1185/59 863/1186/59
f 850/1171/59 863/1186/59 864/1187/59
f 850/1171/59 864/1187/59 865/1188/59
f 850/1171/59 865/1188/59 866/1189/59
f 850/1171/59 866/1189/59 867/1190/59
f 850/1171/59 867/1190/59 868/1191/59
f 850/1171/59 868/1191/59 869/1192/59
f 850/1171/59 869/1192/59 870/1193/59
f 850/1171/59 870/1193/59 871/1194/59
f 850/1171/59 871/1194/59 872/1195/59
f 850/1171/59 872/1195/59 873/1196/59
f 850/1171/59 873/1196/59 874/1197/59
f 850/1171/59 874/1197/59 875/1198/59
f 850/1171/59 875/1198/59 876/1199/59
f 850/1171/59 876/1199/59 877/1200/59
f 850/1171/59 877/1200/59 878/1201/59
f 850/1171/59 878/1201/59 879/1202/59
f 850/1171/59 879/1202/59 880/1203/59
f 850/1171/59 880/1203/59 849/1173/59
f 843/1199/60 844/1200/60 877/1200/60 876/1199/60
f 823/1179/61 824/1180/61 857/1180/61 856/1179/61
f 830/1186/62 831/1187/62 864/1187/62 863/1186/62
f 837/1193/63 838/1194/63 871/1194/63 870/1193/63
f 817/1172/64 818/1174/64 851/1174/64 848/1172/64
f 844/1200/65 845/1201/65 878/1201/65 877/1200/65
f 824/1180/66 825/1181/66 858/1181/66 857/1180/66
f 831/1187/67 832/1188/67 865/1188/67 864/1187/67
f 838/1194/68 839/1195/68 872/1195/68 871/1194/68
f 818/1174/69 819/1175/69 852/1175/69 851/1174/69
f 845/1201/70 846/1202/70 879/1202/70 878/1201/70
f 825/1181/71 826/1182/71 859/1182/71 858/1181/71
f 832/1188/72 833/1189/72 866/1189/72 865/1188/72
f 839/1195/73 840/1196/73 873/1196/73 872/1195/73
f 819/1175/74 820/1176/74 853/1176/74 852/1175/74
f 846/1202/75 847/1203/75 880/1203/75 879/1202/75
f 826/1182/76 827/1183/76 860/1183/76 859/1182/76
f 833/1189/77 834/1190/77 867/1190/77 866/1189/77
f 840/1196/78 841/1197/78 874/1197/78 873/1196/78
f 820/1176/79 821/1177/79 854/1177/79 853/1176/79
f 847/1203/80 816/1173/80 849/1173/80 880/1203/80
f 827/1183/81 828/1184/81 861/1184/81 860/1183/81
f 834/1190/82 835/1191/82 868/1191/82 867/1190/82
f 841/1197/83 842/1198/83 875/1198/83 874/1197/83
f 821/1177/84 822/1178/84 855/1178/84 854/1177/84
f 828/1184/85 829/1185/85 862/1185/85 861/1184/85
f 835/1191/86 836/1192/86 869/1192/86 868/1191/86
f 842/1198/87 843/1199/87 876/1199/87 875/1198/87
f 822/1178/88 823/1179/88 856/1179/88 855/1178/88
f 816/1173/89 817/1172/89 848/1172/89 849/1173/89
f 829/1185/90 830/1186/90 863/1186/90 862/1185/90
f 836/1192/91 837/1193/91 870/1193/91 869/1192/91
f 881/1171/58 883/1172/58 882/1173/58
f 881/1171/58 884/1174/58 883/1172/58
f 881/1171/58 885/1175/58 884/1174/58
f 881/1171/58 886/1176/58 885/1175/58
f 881/1171/58 887/1177/58 886/1176/58
f 881/1171/58 888/1178/58 887/1177/58
f 881/1171/58 889/1179/58 888/1178/58
f 881/1171/58 890/1180/58 889/1179/58
f 881/1171/58 891/1181/58 890/1180/58
f 881/1171/58 892/1182/58 891/1181/58
f 881/1171/58 893/1183/58 892/1182/58
f 881/1171/58 894/1184/58 893/1183/58
f 881/1171/58 895/1185/58 894/1184/58
f 881/1171/58 896/1186/58 895/1185/58
f 881/1171/58 897/1187/58 896/1186/58
f 881/1171/58 898/1188/58 897/1187/58
f 881/1171/58 899/1189/58 898/1188/58
f 881/1171/58 900/1190/58 899/1189/58
f 881/1171/58 901/1191/58 900/1190/58
f 881/1171/58 902/1192/58 901/1191/58
f 881/1171/58 903/1193/58 902/1192/58
f 881/1171/58 904/1194/58 903/1193/58
f 881/1171/58 905/1195/58 904/1194/58
f 881/1171/58 906/1196/58 905/1195/58
f 881/1171/58 907/1197/58 906/1196/58
f 881/1171/58 908/1198/58 907/1197/58
f 881/1171/58 909/1199/58 908/1198/58
f 881/1171/58 910/1200/58 909/1199/58
f 881/1171/58 911/1201/58 910/1200/58
f 881/1171/58 912/1202/58 911/1201/58
f 881/1171/58 913/1203/58 912/1202/58
f 881/1171/58 882/1173/58 913/1203/58
f 916/1171/59 915/1173/59 914/1172/59
f 916/1171/59 914/1172/59 917/1174/59
f 916/1171/59 917/1174/59 918/1175/59
f 916/1171/59 918/1175/59 919/1176/59
f 916/1171/59 919/1176/59 920/1177/59
f 916/1171/59 920/1177/59 921/1178/59
f 916/1171/59 921/1178/59 922/1179/59
f 916/1171/59 922/1179/59 923/1180/59
f 916/1171/59 923/1180/59 924/1181/59
f 916/1171/59 924/1181/59 925/1182/59
f 916/1171/59 925/1182/59 926/1183/59
f 916/1171/59 926/1183/59 927/1184/59
f 916/1171/59 927/1184/59 928/1185/59
f 916/1171/59 928/1185/59 929/1186/59
f 916/1171/59 929/1186/59 930/1187/59
f 916/1171/59 930/1187/59 931/1188/59
f 916/1171/59 931/1188/59 932/1189/59
f 916/1171/59 932/1189/59 933/1190/59
f 916/1171/59 933/1190/59 934/1191/59
f 916/1171/59 934/1191/59 935/1192/59
f 916/1171/59 935/1192/59 936/1193/59
f 916/1171/59 936/1193/59 937/1194/59
f 916/1171/59 937/1194/59 938/1195/59
f 916/1171/59 938/1195/59 939/1196/59
f 916/1171/59 939/1196/59 940/1197/59
f 916/1171/59 940/1197/59 941/1198/59
f 916/1171/59 941/1198/59 942/1199/59
f 916/1171/59 942/1199/59 943/1200/59
f 916/1171/59 943/1200/59 944/1201/59
f 916/1171/59 944/1201/59 945/1202/59
f 916/1171/59 945/1202/59 946/1203/59
f 916/1171/59 946/1203/59 915/1173/59
f 909/1199/60 910/1200/60 943/1200/60 942/1199/60
f 889/1179/61 890/1180/61 923/1180/61 922/1179/61
f 896/1186/62 897/1187/62 930/1187/62 929/1186/62
f 903/1193/63 904/1194/63 937/1194/63 936/1193/63
f 883/1172/64 884/1174/64 917/1174/64 914/1172/64
f 910/1200/65 911/1201/65 944/1201/65 943/1200/65
f 890/1180/66 891/1181/66 924/1181/66 923/1180/66
f 897/1187/67 898/1188/67 931/1188/67 930/1187/67
f 904/1194/68 905/1195/68 938/1195/68 937/1194/68
f 884/1174/69 885/1175/69 918/1175/69 917/1174/69
f 911/1201/70 912/1202/70 945/1202/70 944/1201/70
f 891/1181/71 892/1182/71 925/1182/71 924/1181/71
f 898/1188/72 899/1189/72 932/1189/72 931/1188/72
f 905/1195/73 906/1196/73 939/1196/73 938/1195/73
f 885/1175/74 886/1176/74 919/1176/74 918/1175/74
f 912/1202/75 913/1203/75 946/1203/75 945/1202/75
f 892/1182/76 893/1183/76 926/1183/76 925/1182/76
f 899/1189/77 900/1190/77 933/1190/77 932/1189/77
f 906/1196/78 907/1197/78 940/1197/78 939/1196/78
f 886/1176/79 887/1177/79 920/1177/79 919/1176/79
f 913/1203/80 882/1173/80 915/1173/80 946/1203/80
f 893/1183/81 894/1184/81 927/1184/81 926/1183/81
f 900/1190/82 901/1191/82 934/1191/82 933/1190/82
f 907/1197/83 908/1198/83 941/1198/83 940/1197/83
f 887/1177/84 888/1178/84 921/1178/84 920/1177/84
f 894/1184/85 895/1185/85 928/1185/85 927/1184/85
f 901/1191/86 902/1192/86 935/1192/86 934/1191/86
f 908/1198/87 909/1199/87 942/1199/87 941/1198/87
f 888/1178/88 889/1179/88 922/1179/88 921/1178/88
f 882/1173/89 883/1172/89 914/1172/89 915/1173/89
f 895/1185/90 896/1186/90 929/1186/90 928/1185/90
f 902/1192/91 903/1193/91 936/1193/91 935/1192/91
f 947/1171/58 949/1172/58 948/1173/58
f 947/1171/58 950/1174/58 949/1172/58
f 947/1171/58 951/1175/58 950/1174/58
f 947/1171/58 952/1176/58 951/1175/58
f 947/1171/58 953/1177/58 952/1176/58
f 947/1171/58 954/1178/58 953/1177/58
f 947/1171/58 955/1179/58 954/1178/58
f 947/1171/58 956/1180/58 955/1179/58
f 947/1171/58 957/1181/58 956/1180/58
f 947/1171/58 958/1182/58 957/1181/58
f 947/1171/58 959/1183/58 958/1182/58
f 947/1171/58 960/1184/58 959/1183/58
f 947/1171/58 961/1185/58 960/1184/58
f 947/1171/58 962/1186/58 961/1185/58
f 947/1171/58 963/1187/58 962/1186/58
f 947/1171/58 964/1188/58 963/1187/58
f 947/1171/58 965/1189/58 964/1188/58
f 947/1171/58 966/1190/58 965/1189/58
f 947/1171/58 967/1191/58 966/1190/58
f 947/1171/58 968/1192/58 967/1191/58
f 947/1171/58 969/1193/58 968/1192/58
f 947/1171/58 970/1194/58 969/1193/58
f 947/1171/58 971/1195/58 970/1194/58
f 947/1171/58 972/1196/58 971/1195/58
f 947/1171/58 973/1197/58 972/1196/58
f 947/1171/58 974/1198/58 973/1197/58
f 947/1171/58 975/1199/58 974/1198/58
f 947/1171/58 976/1200/58 975/1199/58
f 947/1171/58 977/1201/58 976/1200/58
f 947/1171/58 978/1202/58 977/1201/58
f 947/1171/58 979/1203/58 978/1202/58
f 947/1171/58 948/1173/58 979/1203/58
f 982/1171/59 981/1173/59 980/1172/59
f 982/1171/59 980/1172/59 983/1174/59
f 982/1171/59 983/1174/59 984/1175/59
f 982/1171/59 984/1175/59 985/1176/59
f 982/1171/59 985/1176/59 986/1177/59
f 982/1171/59 986/1177/59 987/1178/59
f 982/1171/59 987/1178/59 988/1179/59
f 982/1171/59 988/1179/59 989/1180/59
f 982/1171/59 989/1180/59 990/1181/59
f 982/1171/59 990/1181/59 991/1182/59
f 982/1171/59 991/1182/59 992/1183/59
f 982/1171/59 992/1183/59 993/1184/59
f 982/1171/59 993/1184/59 994/1185/59
f 982/1171/59 994/1185/59 995/1186/59
f 982/1171/59 995/1186/59 996/1187/59
f 982/1171/59 996/1187/59 997/1188/59
f 982/1171/59 997/1188/59 998/1189/59
f 982/1171/59 998/1189/59 999/1190/59
f 982/1171/59 999/1190/59 1000/1191/59
f 982/1171/59 1000/1191/59 1001/1192/59
f 982/1171/59 1001/1192/59 1002/1193/59
f 982/1171/59 1002/1193/59 1003/1194/59
f 982/1171/59 1003/1194/59 1004/1195/59
f 982/1171/59 1004/1195/59 1005/1196/59
f 982/1171/59 1005/1196/59 1006/1197/59
f 982/1171/59 1006/1197/59 1007/1198/59
f 982/1171/59 1007/1198/59 1008/1199/59
f 982/1171/59 1008/1199/59 1009/1200/59
f 982/1171/59 1009/1200/59 1010/1201/59
f 982/1171/59 1010/1201/59 1011/1202/59
f 982/1171/59 1011/1202/59 1012/1203/59
f 982/1171/59 1012/1203/59 981/1173/59
f 975/1199/60 976/1200/60 1009/1200/60 1008/1199/60
f 955/1179/61 956/1180/61 989/1180/61 988/1179/61
f 962/1186/62 963/1187/62 996/1187/62 995/1186/62
f 969/1193/63 970/1194/63 1003/1194/63 1002/1193/63
f 949/1172/64 950/1174/64 983/1174/64 980/1172/64
f 976/1200/65 977/1201/65 1010/1201/65 1009/1200/65
f 956/1180/66 957/1181/66 990/1181/66 989/1180/66
f 963/1187/67 964/1188/67 997/1188/67 996/1187/67
f 970/1194/68 971/1195/68 1004/1195/68 1003/1194/68
f 950/1174/69 951/1175/69 984/1175/69 983/1174/69
f 977/1201/70 978/1202/70 1011/1202/70 1010/1201/70
f 957/1181/71 958/1182/71 991/1182/71 990/1181/71
f 964/1188/72 965/1189/72 998/1189/72 997/1188/72
f 971/1195/73 972/1196/73 1005/1196/73 1004/1195/73
f 951/1175/74 952/1176/74 985/1176/74 984/1175/74
f 978/1202/75 979/1203/75 1012/1203/75 1011/1202/75
f 958/1182/76 959/1183/76 992/1183/76 991/1182/76
f 965/1189/77 966/1190/77 999/1190/77 998/1189/77
f 972/1196/78 973/1197/78 1006/1197/78 1005/1196/78
f 952/1176/79 953/1177/79 986/1177/79 985/1176/79
f 979/1203/80 948/1173/80 981/1173/80 1012/1203/80
f 959/1183/81 960/1184/81 993/1184/81 992/1183/81
f 966/1190/82 967/1191/82 1000/1191/82 999/1190/82
f 973/1197/83 974/1198/83 1007/1198/83 1006/1197/83
f 953/1177/84 954/1178/84 987/1178/84 986/1177/84
f 960/1184/85 961/1185/85 994/1185/85 993/1184/85
f 967/1191/86 968/1192/86 1001/1192/86 1000/1191/86
f 974/1198/87 975/1199/87 1008/1199/87 1007/1198/87
f 954/1178/88 955/1179/88 988/1179/88 987/1178/88
f 948/1173/89 949/1172/89 980/1172/89 981/1173/89
f 961/1185/90 962/1186/90 995/1186/90 994/1185/90
f 968/1192/91 969/1193/91 1002/1193/91 1001/1192/91
